<svg xmlns="http://www.w3.org/2000/svg" viewBox="0 0 512 512"><path fill="111111" d="M483.869 47.198H28.131C12.619 47.198 0 59.818 0 75.33v276.178c0 15.512 12.619 28.131 28.131 28.132h297.756c3.78 0 7.421 1.135 10.53 3.284l115.881 80.059a10.267 10.267 0 0010.6.643 10.26 10.26 0 005.493-9.086v-69.943a4.964 4.964 0 014.959-4.959h10.517c15.512 0 28.131-12.619 28.131-28.131V75.33c.002-15.512-12.617-28.132-28.129-28.132zm7.61 304.309c0 4.197-3.414 7.61-7.61 7.61h-10.517c-14.05 0-25.48 11.43-25.48 25.48v50.383l-99.789-68.939a38.867 38.867 0 00-22.196-6.923H28.131c-4.197 0-7.61-3.414-7.61-7.61V75.33c0-4.197 3.414-7.61 7.61-7.61h455.737c4.197 0 7.61 3.414 7.61 7.61v276.177z"/><path fill="111111" d="M352.449 139.543h-239.07c-5.666 0-10.261 4.595-10.261 10.26 0 5.666 4.595 10.261 10.261 10.261h239.07c5.666 0 10.26-4.595 10.26-10.261 0-5.665-4.594-10.26-10.26-10.26zm46.172 63.615H113.379c-5.666 0-10.261 4.595-10.261 10.26 0 5.666 4.595 10.261 10.261 10.261h285.242c5.666 0 10.26-4.595 10.26-10.261.001-5.665-4.594-10.26-10.26-10.26zm0 64.642H113.379c-5.666 0-10.261 4.595-10.261 10.26 0 5.666 4.595 10.26 10.261 10.26h285.242c5.666 0 10.26-4.595 10.26-10.26.001-5.666-4.594-10.26-10.26-10.26z"/></svg>