<?xml version="1.0" encoding="UTF-8" standalone="no"?>
<svg
   xmlns:dc="http://purl.org/dc/elements/1.1/"
   xmlns:cc="http://creativecommons.org/ns#"
   xmlns:rdf="http://www.w3.org/1999/02/22-rdf-syntax-ns#"
   xmlns:svg="http://www.w3.org/2000/svg"
   xmlns="http://www.w3.org/2000/svg"
   viewBox="0 0 150.66667 36.502666"
   height="36.502666"
   width="150.66667"
   xml:space="preserve"
   id="svg2"
   version="1.1"><metadata
     id="metadata8"><rdf:RDF><cc:Work
         rdf:about=""><dc:format>image/svg+xml</dc:format><dc:type
           rdf:resource="http://purl.org/dc/dcmitype/StillImage" /></cc:Work></rdf:RDF></metadata><defs
     id="defs6"><clipPath
       id="clipPath18"
       clipPathUnits="userSpaceOnUse"><path
         id="path16"
         d="M 0,27.377 H 113 V 0 H 0 Z" /></clipPath><linearGradient
       id="linearGradient54"
       spreadMethod="pad"
       gradientTransform="matrix(22.399919,0,0,-22.399919,0,16.420414)"
       gradientUnits="userSpaceOnUse"
       y2="0"
       x2="1"
       y1="0"
       x1="0"><stop
         id="stop48"
         offset="0"
         style="stop-opacity:1;stop-color:#5bc2b2" /><stop
         id="stop50"
         offset="1"
         style="stop-opacity:1;stop-color:#2b2f81" /><stop
         id="stop52"
         offset="1"
         style="stop-opacity:1;stop-color:#2b2f81" /></linearGradient><clipPath
       id="clipPath64"
       clipPathUnits="userSpaceOnUse"><path
         id="path62"
         d="M 0,27.377 H 113 V 0 H 0 Z" /></clipPath></defs><g
     transform="matrix(1.3333333,0,0,-1.3333333,0,36.502667)"
     id="g10"><g
       id="g12"><g
         clip-path="url(#clipPath18)"
         id="g14"><g
           transform="translate(55.5186,9.5686)"
           id="g20"><path
             id="path22"
             style="fill:#393f6b;fill-opacity:1;fill-rule:nonzero;stroke:none"
             d="M 0,0 C -0.115,2.229 -1.959,4.226 -4.303,4.226 -6.877,4.226 -8.876,2.381 -9.145,0 Z m -4.303,6.569 c 4.034,0 6.954,-2.997 6.954,-7.03 C 2.651,-0.73 2.613,-1.23 2.574,-1.5 2.536,-1.883 2.229,-2.152 1.883,-2.152 H -9.183 c 0.154,-2.575 2.421,-4.995 5.149,-4.995 1.614,0 2.92,0.614 3.804,1.153 0.538,0.307 0.768,0.498 1.076,0.076 0.23,-0.307 0.423,-0.576 0.653,-0.883 0.269,-0.346 0.422,-0.577 -0.154,-1 -0.922,-0.73 -2.996,-1.767 -5.648,-1.767 -4.649,0 -7.532,3.65 -7.532,8.068 0,4.342 2.883,8.069 7.532,8.069" /></g><g
           transform="translate(69.2734,2.4211)"
           id="g24"><path
             id="path26"
             style="fill:#393f6b;fill-opacity:1;fill-rule:nonzero;stroke:none"
             d="m 0,0 c 2.805,0 4.572,2.651 4.572,5.647 0,3.075 -1.69,5.496 -5.033,5.496 -2.113,0 -3.726,-0.923 -3.726,-0.923 V 2.536 C -4.187,2.536 -2.766,0 0,0 m -6.877,24.131 c 0,0.383 0.346,0.728 0.73,0.728 h 1.191 c 0.384,0 0.729,-0.345 0.729,-0.728 V 12.718 c 0,0 1.577,0.999 4.112,0.999 4.61,0 7.377,-3.534 7.377,-8.03 0,-4.418 -3.074,-8.108 -6.992,-8.108 -2.882,0 -4.727,2.037 -4.727,2.037 l -0.23,-1.038 c -0.077,-0.346 -0.307,-0.614 -0.654,-0.614 h -0.806 c -0.384,0 -0.73,0.346 -0.73,0.73 z" /></g><g
           transform="translate(80.8779,15.0237)"
           id="g28"><path
             id="path30"
             style="fill:#393f6b;fill-opacity:1;fill-rule:nonzero;stroke:none"
             d="m 0,0 c 0,0.385 0.346,0.73 0.729,0.73 h 1.192 c 0.385,0 0.73,-0.345 0.73,-0.73 v -13.908 c 0,-0.385 -0.345,-0.731 -0.73,-0.731 H 0.729 C 0.346,-14.639 0,-14.293 0,-13.908 Z m -0.538,9.646 c 0,1.037 0.807,1.843 1.806,1.843 1.038,0 1.844,-0.806 1.844,-1.843 0,-1 -0.806,-1.807 -1.844,-1.807 -0.999,0 -1.806,0.807 -1.806,1.807" /></g><g
           transform="translate(88.9854,15.0237)"
           id="g32"><path
             id="path34"
             style="fill:#393f6b;fill-opacity:1;fill-rule:nonzero;stroke:none"
             d="m 0,0 c 0,0.385 0.347,0.73 0.73,0.73 h 0.73 c 0.347,0 0.538,-0.154 0.615,-0.46 l 0.346,-1.192 c 0,0 1.806,2.036 4.995,2.036 2.267,0 3.919,-0.884 4.918,-2.497 0.191,0.154 2.651,2.497 5.726,2.497 4.457,0 5.955,-2.92 5.955,-6.915 v -8.107 c 0,-0.385 -0.346,-0.731 -0.73,-0.731 h -1.229 c -0.385,0 -0.731,0.346 -0.731,0.731 v 8.107 c 0,2.881 -1.229,4.341 -3.458,4.341 -2.498,0 -4.15,-1.651 -4.688,-2.151 0.115,-0.655 0.192,-1.383 0.192,-2.19 v -8.107 c 0,-0.385 -0.346,-0.731 -0.729,-0.731 h -1.231 c -0.384,0 -0.729,0.346 -0.729,0.731 v 8.107 c 0,2.92 -1.307,4.341 -3.651,4.341 -2.727,0 -4.38,-2.19 -4.38,-2.19 v -10.258 c 0,-0.385 -0.345,-0.731 -0.729,-0.731 H 0.73 c -0.383,0 -0.73,0.346 -0.73,0.731 z" /></g></g></g><g
       id="g36"><g
         id="g38"><g
           id="g44"><g
             id="g46"><path fill="url(#linearGradient54)"
               d="M 0.105,26.355 C 0.053,26.297 0.004,26.215 0,26.121 v 0 -0.028 c 0.001,-0.011 0.002,-0.022 0.004,-0.034 v 0 c 0.02,-0.08 0.043,-0.165 0.064,-0.248 v 0 c 0.577,-2.262 1.377,-5.181 2.53,-8.372 v 0 C 3.082,16.117 3.751,14.37 4.633,12.61 v 0 c 0.449,-0.902 0.896,-1.695 1.364,-2.426 v 0 C 6.586,9.269 7.163,8.55 7.814,7.921 v 0 c 0.4,-0.383 0.794,-0.689 1.2,-0.933 v 0 c 0.507,-0.297 0.991,-0.479 1.47,-0.555 v 0 c 0.53,-0.093 1.105,-0.05 1.626,0.12 v 0 c 0.493,0.157 0.988,0.428 1.477,0.814 v 0 c 0.977,0.781 1.656,1.768 2.139,2.54 v 0 c 0.506,0.817 0.964,1.72 1.48,2.925 v 0 c 0.391,0.919 0.769,1.926 1.155,3.076 v 0 l 0.496,1.414 c 0.168,0.467 0.362,0.908 0.532,1.348 v 0 c 0.886,2.304 2.067,2.402 3.011,0.831 v 0 c -1.817,3.093 -4.845,2.666 -4.845,2.666 v 0 c -0.262,-0.485 -0.504,-1.001 -0.761,-1.619 v 0 C 16.575,20.01 16.371,19.47 16.191,18.944 v 0 l -0.503,-1.583 c -0.314,-1.047 -0.623,-1.962 -0.945,-2.797 v 0 c -0.351,-0.915 -0.733,-1.749 -1.13,-2.481 v 0 c -0.306,-0.56 -0.789,-1.332 -1.356,-1.845 v 0 C 11.742,9.785 11.305,9.603 10.777,9.608 v 0 c -0.504,0.01 -1.114,0.288 -1.712,0.786 v 0 C 8.59,10.778 8.094,11.313 7.51,12.072 v 0 c -0.453,0.592 -0.912,1.276 -1.366,2.034 v 0 c -0.766,1.289 -1.528,2.746 -2.266,4.331 v 0 c -1.388,2.986 -2.295,5.561 -3.111,7.73 v 0 H 0.766 c -0.038,0.119 -0.124,0.214 -0.235,0.259 v 0 c -0.042,0.018 -0.088,0.03 -0.138,0.03 v 0 c -0.11,0 -0.217,-0.023 -0.288,-0.101" /></g></g></g></g><g
       id="g58"><g
         clip-path="url(#clipPath64)"
         id="g60"><g
           transform="translate(40.9619,27.3772)"
           id="g66"><path
             id="path68"
             style="fill:#393f6b;fill-opacity:1;fill-rule:nonzero;stroke:none"
             d="m 0,0 c -0.442,0 -0.813,-0.309 -0.947,-0.733 l -0.046,-0.226 -0.486,-2.396 c -0.155,-0.792 -0.337,-1.64 -0.519,-2.479 l -0.091,-0.421 c -0.43,-1.971 -0.896,-3.971 -1.389,-5.947 -0.526,-2.112 -1.099,-4.108 -1.703,-5.931 -0.351,-1.054 -0.712,-1.986 -1.069,-2.776 -0.195,-0.435 -0.396,-0.848 -0.623,-1.207 -0.225,-0.358 -0.975,-1.936 -2.097,-0.167 -0.196,0.309 -0.424,0.685 -0.669,1.161 -0.89,1.77 -1.694,3.91 -2.378,5.776 l -0.504,1.388 c -0.52,1.437 -1.059,2.917 -1.654,4.394 -0.06,0.15 -0.119,0.3 -0.18,0.451 -0.384,0.93 -0.857,2.031 -1.446,3.14 -0.326,0.612 -0.627,1.109 -0.948,1.563 -0.335,0.467 -0.749,1.011 -1.385,1.488 -0.344,0.254 -0.683,0.43 -1.034,0.534 -0.396,0.12 -0.847,0.138 -1.236,0.051 -0.378,-0.081 -0.75,-0.251 -1.111,-0.504 -0.33,-0.235 -0.587,-0.502 -0.816,-0.756 -0.485,-0.567 -0.817,-1.134 -1.076,-1.613 0,0 3.028,0.427 4.845,-2.666 0.02,-0.032 0.04,-0.065 0.059,-0.099 0.055,-0.096 0.109,-0.197 0.162,-0.304 0.365,-0.742 0.778,-1.603 1.238,-2.744 0.549,-1.372 1.067,-2.775 1.615,-4.261 0.222,-0.604 0.447,-1.213 0.675,-1.823 0.348,-0.935 0.765,-2.039 1.215,-3.138 0.353,-0.862 0.837,-1.999 1.448,-3.138 0.229,-0.427 0.546,-0.991 0.943,-1.559 0.327,-0.463 0.744,-1.005 1.346,-1.494 0.324,-0.254 0.648,-0.441 0.985,-0.564 0.39,-0.145 0.816,-0.196 1.206,-0.143 0.485,0.06 0.88,0.261 1.127,0.418 0.314,0.2 0.607,0.446 0.85,0.711 0.522,0.559 0.862,1.13 1.14,1.622 0.279,0.503 0.534,1.036 0.779,1.622 0.402,0.965 0.765,1.993 1.143,3.234 0.666,2.194 1.153,4.353 1.581,6.36 0.385,1.807 0.751,3.769 1.154,6.177 l 0.082,0.495 c 0.139,0.841 0.275,1.66 0.399,2.519 l 0.364,2.575 0.05,0.346 C 1,-1.058 1,-1.051 1.001,-1.044 0.985,-0.465 0.545,0 0,0" /></g></g></g></g></svg>
