<svg xmlns="http://www.w3.org/2000/svg" viewBox="0 0 150.66667 36.502666"><defs><clipPath id="a" clipPathUnits="userSpaceOnUse"><path d="M0 27.377h113V0H0z"/></clipPath><clipPath id="c" clipPathUnits="userSpaceOnUse"><path d="M0 27.377h113V0H0z"/></clipPath><linearGradient id="b" spreadMethod="pad" gradientTransform="matrix(22.39992 0 0 -22.39992 0 16.42)" gradientUnits="userSpaceOnUse" y2="0" x2="1" y1="0" x1="0"><stop offset="0" stop-color="#5bc2b2"/><stop offset="1" stop-color="#2b2f81"/><stop offset="1" stop-color="#2b2f81"/></linearGradient></defs><g clip-path="url(#a)" transform="matrix(1.33333 0 0 -1.33333 0 36.503)"><path d="M55.519 9.569c-.115 2.229-1.96 4.226-4.303 4.226-2.574 0-4.573-1.845-4.842-4.226zm-4.303 6.569c4.034 0 6.954-2.997 6.954-7.03 0-.27-.038-.77-.077-1.04a.706.706 0 00-.691-.651H46.336c.154-2.575 2.42-4.995 5.149-4.995 1.614 0 2.92.614 3.804 1.153.538.307.768.498 1.076.076.23-.307.423-.576.653-.883.269-.346.422-.577-.154-1C55.942 1.038 53.868 0 51.216 0c-4.65 0-7.532 3.65-7.532 8.068 0 4.342 2.883 8.069 7.532 8.069M69.273 2.421c2.805 0 4.572 2.651 4.572 5.647 0 3.075-1.69 5.496-5.033 5.496-2.113 0-3.726-.923-3.726-.923V4.957s1.421-2.536 4.187-2.536m-6.877 24.131c0 .383.346.728.73.728h1.191a.754.754 0 00.73-.728V15.14s1.576 1 4.111 1c4.61 0 7.377-3.535 7.377-8.03 0-4.42-3.074-8.11-6.992-8.11-2.882 0-4.727 2.037-4.727 2.037L64.586 1c-.077-.346-.307-.614-.654-.614h-.806a.756.756 0 00-.73.73zm18.482-11.528c0 .385.346.73.729.73h1.192c.385 0 .73-.345.73-.73V1.116a.755.755 0 00-.73-.731h-1.192a.756.756 0 00-.73.73zm-.538 9.646c0 1.037.807 1.843 1.806 1.843a1.82 1.82 0 001.844-1.843c0-1-.806-1.807-1.844-1.807-1 0-1.806.807-1.806 1.807m8.645-9.646c0 .385.347.73.73.73h.73c.347 0 .538-.154.615-.46l.346-1.192s1.806 2.036 4.995 2.036c2.267 0 3.92-.884 4.918-2.497.191.154 2.651 2.497 5.726 2.497 4.457 0 5.955-2.92 5.955-6.915V1.116a.756.756 0 00-.73-.731h-1.229a.756.756 0 00-.73.73v8.108c0 2.88-1.23 4.34-3.459 4.34-2.498 0-4.15-1.65-4.688-2.15.115-.655.192-1.383.192-2.19V1.116a.756.756 0 00-.729-.731h-1.23a.755.755 0 00-.73.73v8.108c0 2.92-1.307 4.34-3.65 4.34-2.728 0-4.38-2.19-4.38-2.19V1.117a.755.755 0 00-.73-.731h-1.192a.757.757 0 00-.73.73z" fill="#393f6b"/></g><path fill="url(#b)" d="M.105 26.355A.385.385 0 010 26.121v-.028l.004-.034.064-.248c.577-2.262 1.377-5.181 2.53-8.372.484-1.322 1.153-3.069 2.035-4.829.449-.902.896-1.695 1.364-2.426.589-.915 1.166-1.634 1.817-2.263.4-.383.794-.689 1.2-.933.507-.297.991-.479 1.47-.555a3.42 3.42 0 011.626.12c.493.157.988.428 1.477.814.977.781 1.656 1.768 2.139 2.54.506.817.964 1.72 1.48 2.925.391.919.769 1.926 1.155 3.076l.496 1.414c.168.467.362.908.532 1.348.886 2.304 2.067 2.402 3.011.831-1.817 3.093-4.845 2.666-4.845 2.666a17.427 17.427 0 01-.761-1.619 30.322 30.322 0 01-.603-1.604l-.503-1.583a38.43 38.43 0 00-.945-2.797 21.033 21.033 0 00-1.13-2.481c-.306-.56-.789-1.332-1.356-1.845-.515-.453-.952-.635-1.48-.63-.504.01-1.114.288-1.712.786-.475.384-.971.919-1.555 1.678a21.795 21.795 0 00-1.366 2.034 49.11 49.11 0 00-2.266 4.331c-1.388 2.986-2.295 5.561-3.111 7.73H.766a.412.412 0 01-.235.259.348.348 0 01-.138.03c-.11 0-.217-.023-.288-.101" transform="matrix(1.33333 0 0 -1.33333 0 36.503)"/><g clip-path="url(#c)" transform="matrix(1.33333 0 0 -1.33333 0 36.503)"><path d="M40.962 27.377c-.442 0-.813-.309-.947-.733l-.046-.226-.486-2.396c-.155-.792-.337-1.64-.52-2.479l-.09-.42c-.43-1.972-.896-3.972-1.39-5.948a81.978 81.978 0 00-1.702-5.93 29.266 29.266 0 00-1.07-2.777 9.72 9.72 0 00-.622-1.207c-.225-.358-.975-1.936-2.097-.167-.196.31-.424.685-.67 1.161-.89 1.77-1.693 3.91-2.377 5.776l-.504 1.388a130.97 130.97 0 01-1.654 4.394l-.18.451c-.384.93-.857 2.031-1.446 3.14a14.312 14.312 0 01-.948 1.563c-.335.467-.75 1.011-1.385 1.488-.344.254-.683.43-1.034.534-.396.12-.847.138-1.236.051a3.059 3.059 0 01-1.111-.504 5.002 5.002 0 01-.816-.756 8.978 8.978 0 01-1.076-1.613s3.028.427 4.845-2.666a5.7 5.7 0 00.221-.403c.365-.742.778-1.603 1.238-2.744a167.39 167.39 0 001.615-4.26 355.5 355.5 0 01.675-1.824c.348-.935.765-2.039 1.215-3.138.353-.862.837-1.999 1.448-3.138.229-.427.546-.99.943-1.559.327-.463.744-1.005 1.346-1.494.324-.254.648-.44.985-.564.39-.145.816-.196 1.206-.143.485.06.88.261 1.127.418.314.2.607.446.85.711.522.56.862 1.13 1.14 1.622.279.503.534 1.036.779 1.622.402.965.765 1.993 1.143 3.234.666 2.194 1.153 4.353 1.58 6.36.386 1.807.752 3.77 1.155 6.177l.082.495c.139.841.275 1.66.399 2.52l.364 2.574.05.346c0 .006 0 .013.002.02-.016.58-.456 1.044-1.001 1.044" fill="#393f6b"/></g></svg>
