<svg xmlns="http://www.w3.org/2000/svg" xmlns:xlink="http://www.w3.org/1999/xlink" xmlns:dc="http://purl.org/dc/elements/1.1/" xmlns:cc="http://creativecommons.org/ns#" xmlns:rdf="http://www.w3.org/1999/02/22-rdf-syntax-ns#" xmlns:svg="http://www.w3.org/2000/svg"><defs>
<filter id="filter0_d" x="0" y="-12" width="691" height="124" filterUnits="userSpaceOnUse" color-interpolation-filters="sRGB">
<feFlood flood-opacity="0" result="BackgroundImageFix"/>
<feColorMatrix in="SourceAlpha" type="matrix" values="0 0 0 0 0 0 0 0 0 0 0 0 0 0 0 0 0 0 127 0"/>
<feOffset dx="16"/>
<feGaussianBlur stdDeviation="6"/>
<feColorMatrix type="matrix" values="0 0 0 0 0.549913 0 0 0 0 0.754167 0 0 0 0 0.737606 0 0 0 1 0"/>
<feBlend mode="normal" in2="BackgroundImageFix" result="effect1_dropShadow"/>
<feBlend mode="normal" in="SourceGraphic" in2="effect1_dropShadow" result="shape"/>
</filter>
<linearGradient id="paint0_linear" x1="0" y1="0" x2="663" y2="0" gradientUnits="userSpaceOnUse">
<stop stop-color="#4C9FB3"/>
<stop offset="1" stop-color="#31E1CF"/>
</linearGradient>
<clipPath id="clipPath18" clipPathUnits="userSpaceOnUse"><path id="path16" d="M 0,27.377 H 113 V 0 H 0 Z"/></clipPath><linearGradient id="linearGradient54" spreadMethod="pad" gradientTransform="matrix(22.399919,0,0,-22.399919,0,16.420414)" gradientUnits="userSpaceOnUse" y2="0" x2="1" y1="0" x1="0"><stop id="stop48" offset="0" style="stop-opacity:1;stop-color:#5bc2b2"/><stop id="stop50" offset="1" style="stop-opacity:1;stop-color:#2b2f81"/><stop id="stop52" offset="1" style="stop-opacity:1;stop-color:#2b2f81"/></linearGradient><clipPath id="clipPath64" clipPathUnits="userSpaceOnUse"><path id="path62" d="M 0,27.377 H 113 V 0 H 0 Z"/></clipPath>
    <style>
      .cls-1 {
        fill: none;
        stroke: #3fd6bc;
        stroke-width: 3px;
      }
    </style>
  
    <linearGradient id="SVGID_3_" gradientUnits="userSpaceOnUse" x1="-87.0856" y1="140" x2="-86.9189" y2="140" gradientTransform="matrix(219.5379 -11.5055 10.3552 243.9254 17670.5703 -35130.5586)">
      <stop offset="0" style="stop-color:#6F00F9"/>
      <stop offset="1" style="stop-color:#69BAC0"/>
    </linearGradient>
  </defs><symbol id="01" viewBox="0 0 50 50">
<g>
	<path fill="#363B66" d="M48.2,10c-1.1-1.1-2.7-1.8-4.3-1.8c-1.6,0-3.1,0.6-4.3,1.8L36,13.6V1.7c0-0.7-0.6-1.3-1.3-1.3H12.1
		c-0.4,0-0.7,0.1-1,0.4L0.4,11.5c-0.3,0.3-0.4,0.6-0.4,1v36.2C0,49.4,0.6,50,1.4,50h33.3c0.7,0,1.3-0.6,1.3-1.3V30.7l12.2-12.2
		c1.1-1.1,1.8-2.7,1.8-4.3C50,12.7,49.4,11.1,48.2,10 M23.3,38.3l-4.5,1.2l1.2-4.5L23.3,38.3z M25.9,37.1l-4.8-4.8l17.1-17.1L43,20
		L25.9,37.1z M10.8,5v6.2H4.6L10.8,5z M33.3,47.3H2.7V13.8h9.4c0.7,0,1.3-0.6,1.3-1.3V3.1h19.9v13.2L18.3,31.4c0,0,0,0,0,0
		c-0.2,0.2-0.3,0.4-0.4,0.6l-2.4,9c-0.1,0.5,0,1,0.4,1.3c0.3,0.3,0.6,0.4,1,0.4c0.1,0,0.2,0,0.3,0l9-2.4c0.2-0.1,0.5-0.2,0.6-0.4
		c0,0,0,0,0,0l6.5-6.5V47.3z M46.3,16.7l-1.4,1.4l-4.8-4.8l1.4-1.4c0.6-0.6,1.5-1,2.4-1c0.9,0,1.7,0.3,2.4,1c0.6,0.6,1,1.5,1,2.4
		C47.3,15.2,47,16,46.3,16.7"/>
	<path fill="#363B66" d="M11.4,40.1H7.5c-0.7,0-1.3,0.6-1.3,1.3c0,0.7,0.6,1.3,1.3,1.3h3.9c0.7,0,1.3-0.6,1.3-1.3
		C12.8,40.7,12.2,40.1,11.4,40.1"/>
	<path fill="#363B66" d="M12.1,34.7H7.5c-0.7,0-1.3,0.6-1.3,1.3c0,0.7,0.6,1.3,1.3,1.3h4.6c0.7,0,1.3-0.6,1.3-1.3
		C13.5,35.3,12.9,34.7,12.1,34.7"/>
	<path fill="#363B66" d="M13.5,29.3H7.5c-0.7,0-1.3,0.6-1.3,1.3c0,0.7,0.6,1.3,1.3,1.3h5.9c0.7,0,1.3-0.6,1.3-1.3
		C14.8,29.9,14.2,29.3,13.5,29.3"/>
	<path fill="#363B66" d="M7.5,26.6h9.8c0.7,0,1.3-0.6,1.3-1.3c0-0.7-0.6-1.3-1.3-1.3H7.5c-0.7,0-1.3,0.6-1.3,1.3
		C6.2,26,6.8,26.6,7.5,26.6"/>
	<path fill="#363B66" d="M7.5,21.2h15.3c0.7,0,1.3-0.6,1.3-1.3c0-0.7-0.6-1.3-1.3-1.3H7.5c-0.7,0-1.3,0.6-1.3,1.3
		C6.2,20.6,6.8,21.2,7.5,21.2"/>
	<path fill="#363B66" d="M17.5,15.9h11.6c0.7,0,1.3-0.6,1.3-1.3c0-0.7-0.6-1.3-1.3-1.3H17.5c-0.7,0-1.3,0.6-1.3,1.3
		C16.1,15.2,16.7,15.9,17.5,15.9"/>
	<path fill="#363B66" d="M17.5,10.5h11.6c0.7,0,1.3-0.6,1.3-1.3c0-0.7-0.6-1.3-1.3-1.3H17.5c-0.7,0-1.3,0.6-1.3,1.3
		C16.1,9.9,16.7,10.5,17.5,10.5"/>
</g>
</symbol><symbol id="02" viewBox="0 0 50 50">
<g>
	<path fill="#363B66" d="M43.4,28.5l-9.7-8.6c-0.5-0.5-1.3-0.4-1.8,0.1c-0.5,0.5-0.4,1.3,0.1,1.8l8.6,7.7L32,37.1
		c-0.5,0.5-0.6,1.3-0.1,1.8c0.3,0.3,0.6,0.4,1,0.4c0.3,0,0.6-0.1,0.9-0.3l9.7-8.6c0.3-0.2,0.4-0.6,0.4-1
		C43.8,29.1,43.6,28.7,43.4,28.5"/>
	<path fill="#363B66" d="M18.1,19.9c-0.5-0.5-1.3-0.6-1.8-0.1l-9.7,8.6c-0.3,0.2-0.4,0.6-0.4,1c0,0.4,0.2,0.7,0.4,1l9.7,8.6
		c0.2,0.2,0.5,0.3,0.9,0.3c0.4,0,0.7-0.1,1-0.4c0.5-0.5,0.4-1.3-0.1-1.8l-8.6-7.7l8.6-7.7C18.6,21.3,18.6,20.5,18.1,19.9"/>
	<path fill="#363B66" d="M28.1,19.2c-0.7-0.2-1.4,0.2-1.6,0.9l-5.4,17.8c-0.2,0.7,0.2,1.4,0.9,1.6c0.1,0,0.2,0.1,0.4,0.1
		c0.6,0,1.1-0.4,1.2-0.9l5.4-17.8C29.1,20.1,28.7,19.4,28.1,19.2"/>
	<path fill="#363B66" d="M48.7,0H1.3C0.6,0,0,0.6,0,1.3v47.4C0,49.4,0.6,50,1.3,50h47.4c0.7,0,1.3-0.6,1.3-1.3V1.3
		C50,0.6,49.4,0,48.7,0 M47.4,7.7h-5.1V2.6h5.1V7.7z M10.3,2.6h29.5v5.1H10.3V2.6z M2.6,2.6h5.1v5.1H2.6V2.6z M2.6,10.3h44.9v37.2
		H2.6V10.3z"/>
</g>
</symbol><symbol id="app" viewBox="0 0 40 40">
<g>
	<path fill="#97BA33" d="M20.3,0C9.5,0,0.7,8.8,0.7,19.7c0,3.4,0.9,6.8,2.6,9.8L0,39.1c-0.1,0.2,0,0.5,0.1,0.7C0.3,39.9,0.5,40,0.7,40
		c0.1,0,0.1,0,0.2,0l10.6-2.8c2.8,1.4,5.8,2.1,8.9,2.1c10.8,0,19.7-8.8,19.7-19.7C40,8.8,31.2,0,20.3,0"/>
</g>
<g>
	<path fill="#FFFFFF" d="M24.9,7.8h-9.1c-1.4,0-2.5,1.1-2.5,2.5v18c0,1.4,1.1,2.5,2.5,2.5h9.1c1.4,0,2.5-1.1,2.5-2.5v-18
		C27.4,8.9,26.3,7.8,24.9,7.8 M20.4,29.9c-0.8,0-1.4-0.6-1.4-1.4c0-0.8,0.6-1.4,1.4-1.4c0.8,0,1.4,0.6,1.4,1.4
		C21.8,29.3,21.2,29.9,20.4,29.9 M25.1,25.2c0,0.4-0.4,0.8-0.8,0.8h-7.9c-0.4,0-0.8-0.3-0.8-0.8V10.2c0-0.4,0.4-0.8,0.8-0.8h7.9
		c0.4,0,0.8,0.3,0.8,0.8V25.2z"/>
</g>
</symbol><symbol id="background_header" viewBox="0 0 679 100">
<g filter="url(#filter0_d)">
<path d="M0 100V0H663C618 26.5 612.5 29.5 559 50.5C505.5 71.5 477 78 425 100H0Z" fill="url(#paint0_linear)"/>
</g>

</symbol><symbol id="chatbots" viewBox="0 0 40 40">
<g>
	<path fill="#6AACCE" d="M40,20c0,11-9,20-20,20C9,40,0,31,0,20C0,9,9,0,20,0C31,0,40,9,40,20"/>
	<path fill="#FFFFFF" d="M30.3,17.3h-0.8v-1.1c0-1.7-1.4-3.1-3.2-3.1h-5.2v-2.6c0.7-0.4,1.1-1.1,1.1-2c0-1.3-1-2.3-2.3-2.3
		c-1.3,0-2.3,1-2.3,2.3c0,0.8,0.5,1.6,1.1,2V13h-5.2c-1.7,0-3.1,1.4-3.1,3.1v1.1H9.7c-1,0-1.8,0.8-1.8,1.8v3.8c0,1,0.8,1.8,1.8,1.8
		h0.8v1.1c0,1.7,1.4,3.1,3.1,3.1h1.5v1.7c0,1,0.8,1.8,1.8,1.8h6.1c1,0,1.8-0.8,1.8-1.8v-1.7h1.5c1.7,0,3.2-1.4,3.2-3.1v-1.1h0.8
		c1,0,1.8-0.8,1.8-1.8v-3.8C32,18.1,31.2,17.3,30.3,17.3 M13.1,18.5c0-1.2,0.9-2.1,2.1-2.1c1.2,0,2.1,0.9,2.1,2.1
		c0,1.2-0.9,2.1-2.1,2.1C14,20.6,13.1,19.6,13.1,18.5 M22.8,26.1h-5.7c-0.9,0-1.7-0.8-1.7-1.7c0-0.9,0.8-1.7,1.7-1.7h5.7
		c0.9,0,1.7,0.8,1.7,1.7C24.6,25.3,23.8,26.1,22.8,26.1 M24.8,20.6c-1.2,0-2.1-0.9-2.1-2.1c0-1.2,0.9-2.1,2.1-2.1
		c1.2,0,2.1,0.9,2.1,2.1C26.9,19.6,26,20.6,24.8,20.6"/>
</g>
</symbol><symbol id="cross" viewBox="0 0 34 34">
<rect width="34" height="34" fill="white"/>
<rect width="34" height="34" fill="white"/>
<path d="M2 2L32 32" stroke="#3FD6BC" stroke-width="4"/>
<path d="M2 32L32 2" stroke="#3FD6BC" stroke-width="4"/>
</symbol><symbol id="email" viewBox="0 0 40 40">
<g>
	<path fill="#7296CD" d="M20,0c11,0,20,9,20,20s-9,20-20,20S0,31,0,20S9,0,20,0"/>
	<polygon fill="#FFFFFF" points="6.9,12.2 6.9,27.8 14.5,20 	"/>
	<polygon fill="#FFFFFF" points="33.1,12.2 33.1,27.8 25.6,20 	"/>
	<path fill="#FFFFFF" d="M7.5,11.5h25l-9.8,10.2C22,22.5,21,22.9,20,22.9c-1,0-2-0.4-2.7-1.1L7.5,11.5z"/>
	<path fill="#FFFFFF" d="M23.2,22.3c-0.8,0.9-2,1.4-3.2,1.4c-1.2,0-2.4-0.5-3.2-1.4l-1.7-1.7l-7.6,7.9h25l-7.6-7.9L23.2,22.3z"/>
</g>
</symbol><symbol id="facebook" viewBox="0 0 96.227 96.227">
<g>
	<path fill="#adb0c2" d="M73.099,15.973l-9.058,0.004c-7.102,0-8.477,3.375-8.477,8.328v10.921h16.938l-0.006,17.106H55.564v43.895H37.897V52.332
		h-14.77V35.226h14.77V22.612C37.897,7.972,46.84,0,59.9,0L73.1,0.021L73.099,15.973L73.099,15.973z"/>
</g>
<g>
</g>
<g>
</g>
<g>
</g>
<g>
</g>
<g>
</g>
<g>
</g>
<g>
</g>
<g>
</g>
<g>
</g>
<g>
</g>
<g>
</g>
<g>
</g>
<g>
</g>
<g>
</g>
<g>
</g>
</symbol><symbol id="feedback" viewBox="0 0 40 40">
<g>
	<g>
		<path fill="#DAB81A" d="M20,0C9,0,0,9,0,20c0,11,9,20,20,20s20-9,20-20C40,9,31,0,20,0z M12.5,13.7H24l-0.1-0.1
			c-0.6-0.6-0.6-1.5,0-2.1c0.6-0.6,1.5-0.6,2,0l2.7,2.7c0,0,0,0,0,0c0,0,0,0,0,0c0,0,0,0,0,0c0,0,0,0,0,0c0,0,0,0,0,0.1l0,0
			c0,0,0,0,0,0c0.1,0.1,0.2,0.3,0.3,0.4c0.1,0.2,0.1,0.4,0.1,0.6c0,0,0,0.1,0,0.1v0c0,0,0,0,0,0c0,0.1,0,0.2,0,0.3v0
			c-0.1,0.2-0.2,0.4-0.4,0.6c0,0,0,0,0,0l-2.7,2.7c-0.3,0.3-0.6,0.4-1,0.4c-0.4,0-0.7-0.2-1-0.4c-0.6-0.6-0.5-1.5,0-2.1l0.1-0.2
			H12.5c-0.8,0-1.4-0.7-1.4-1.5C11,14.3,11.7,13.7,12.5,13.7z M27.6,26.3H16l0.1,0.2c0.6,0.6,0.6,1.5,0,2.1c-0.3,0.3-0.7,0.4-1,0.4
			c-0.4,0-0.7-0.1-1-0.4l-2.7-2.7c0,0,0,0-0.1,0c-0.2-0.2-0.3-0.4-0.4-0.6c0,0,0,0,0,0c0,0,0,0,0,0c0-0.1-0.1-0.2-0.1-0.4v0
			c0-0.2,0.1-0.3,0.1-0.5c0.1-0.2,0.2-0.4,0.4-0.5c0,0,0,0,0,0l2.7-2.7c0.6-0.6,1.5-0.6,2,0c0.6,0.6,0.5,1.5,0,2.1L16,23.4h11.5
			c0.8,0,1.4,0.7,1.4,1.5C29,25.6,28.4,26.3,27.6,26.3z"/>
	</g>
</g>
</symbol><symbol id="logo" viewBox="0 0 150.66667 36.502666"><metadata id="metadata8"><rdf:RDF><cc:Work rdf:about=""><dc:format>image/svg+xml</dc:format><dc:type rdf:resource="http://purl.org/dc/dcmitype/StillImage"/></cc:Work></rdf:RDF></metadata><g transform="matrix(1.3333333,0,0,-1.3333333,0,36.502667)" id="g10"><g id="g12"><g clip-path="url(#clipPath18)" id="g14"><g transform="translate(55.5186,9.5686)" id="g20"><path id="path22" style="fill:#393f6b;fill-opacity:1;fill-rule:nonzero;stroke:none" d="M 0,0 C -0.115,2.229 -1.959,4.226 -4.303,4.226 -6.877,4.226 -8.876,2.381 -9.145,0 Z m -4.303,6.569 c 4.034,0 6.954,-2.997 6.954,-7.03 C 2.651,-0.73 2.613,-1.23 2.574,-1.5 2.536,-1.883 2.229,-2.152 1.883,-2.152 H -9.183 c 0.154,-2.575 2.421,-4.995 5.149,-4.995 1.614,0 2.92,0.614 3.804,1.153 0.538,0.307 0.768,0.498 1.076,0.076 0.23,-0.307 0.423,-0.576 0.653,-0.883 0.269,-0.346 0.422,-0.577 -0.154,-1 -0.922,-0.73 -2.996,-1.767 -5.648,-1.767 -4.649,0 -7.532,3.65 -7.532,8.068 0,4.342 2.883,8.069 7.532,8.069"/></g><g transform="translate(69.2734,2.4211)" id="g24"><path id="path26" style="fill:#393f6b;fill-opacity:1;fill-rule:nonzero;stroke:none" d="m 0,0 c 2.805,0 4.572,2.651 4.572,5.647 0,3.075 -1.69,5.496 -5.033,5.496 -2.113,0 -3.726,-0.923 -3.726,-0.923 V 2.536 C -4.187,2.536 -2.766,0 0,0 m -6.877,24.131 c 0,0.383 0.346,0.728 0.73,0.728 h 1.191 c 0.384,0 0.729,-0.345 0.729,-0.728 V 12.718 c 0,0 1.577,0.999 4.112,0.999 4.61,0 7.377,-3.534 7.377,-8.03 0,-4.418 -3.074,-8.108 -6.992,-8.108 -2.882,0 -4.727,2.037 -4.727,2.037 l -0.23,-1.038 c -0.077,-0.346 -0.307,-0.614 -0.654,-0.614 h -0.806 c -0.384,0 -0.73,0.346 -0.73,0.73 z"/></g><g transform="translate(80.8779,15.0237)" id="g28"><path id="path30" style="fill:#393f6b;fill-opacity:1;fill-rule:nonzero;stroke:none" d="m 0,0 c 0,0.385 0.346,0.73 0.729,0.73 h 1.192 c 0.385,0 0.73,-0.345 0.73,-0.73 v -13.908 c 0,-0.385 -0.345,-0.731 -0.73,-0.731 H 0.729 C 0.346,-14.639 0,-14.293 0,-13.908 Z m -0.538,9.646 c 0,1.037 0.807,1.843 1.806,1.843 1.038,0 1.844,-0.806 1.844,-1.843 0,-1 -0.806,-1.807 -1.844,-1.807 -0.999,0 -1.806,0.807 -1.806,1.807"/></g><g transform="translate(88.9854,15.0237)" id="g32"><path id="path34" style="fill:#393f6b;fill-opacity:1;fill-rule:nonzero;stroke:none" d="m 0,0 c 0,0.385 0.347,0.73 0.73,0.73 h 0.73 c 0.347,0 0.538,-0.154 0.615,-0.46 l 0.346,-1.192 c 0,0 1.806,2.036 4.995,2.036 2.267,0 3.919,-0.884 4.918,-2.497 0.191,0.154 2.651,2.497 5.726,2.497 4.457,0 5.955,-2.92 5.955,-6.915 v -8.107 c 0,-0.385 -0.346,-0.731 -0.73,-0.731 h -1.229 c -0.385,0 -0.731,0.346 -0.731,0.731 v 8.107 c 0,2.881 -1.229,4.341 -3.458,4.341 -2.498,0 -4.15,-1.651 -4.688,-2.151 0.115,-0.655 0.192,-1.383 0.192,-2.19 v -8.107 c 0,-0.385 -0.346,-0.731 -0.729,-0.731 h -1.231 c -0.384,0 -0.729,0.346 -0.729,0.731 v 8.107 c 0,2.92 -1.307,4.341 -3.651,4.341 -2.727,0 -4.38,-2.19 -4.38,-2.19 v -10.258 c 0,-0.385 -0.345,-0.731 -0.729,-0.731 H 0.73 c -0.383,0 -0.73,0.346 -0.73,0.731 z"/></g></g></g><g id="g36"><g id="g38"><g id="g44"><g id="g46"><path fill="url(#linearGradient54)" d="M 0.105,26.355 C 0.053,26.297 0.004,26.215 0,26.121 v 0 -0.028 c 0.001,-0.011 0.002,-0.022 0.004,-0.034 v 0 c 0.02,-0.08 0.043,-0.165 0.064,-0.248 v 0 c 0.577,-2.262 1.377,-5.181 2.53,-8.372 v 0 C 3.082,16.117 3.751,14.37 4.633,12.61 v 0 c 0.449,-0.902 0.896,-1.695 1.364,-2.426 v 0 C 6.586,9.269 7.163,8.55 7.814,7.921 v 0 c 0.4,-0.383 0.794,-0.689 1.2,-0.933 v 0 c 0.507,-0.297 0.991,-0.479 1.47,-0.555 v 0 c 0.53,-0.093 1.105,-0.05 1.626,0.12 v 0 c 0.493,0.157 0.988,0.428 1.477,0.814 v 0 c 0.977,0.781 1.656,1.768 2.139,2.54 v 0 c 0.506,0.817 0.964,1.72 1.48,2.925 v 0 c 0.391,0.919 0.769,1.926 1.155,3.076 v 0 l 0.496,1.414 c 0.168,0.467 0.362,0.908 0.532,1.348 v 0 c 0.886,2.304 2.067,2.402 3.011,0.831 v 0 c -1.817,3.093 -4.845,2.666 -4.845,2.666 v 0 c -0.262,-0.485 -0.504,-1.001 -0.761,-1.619 v 0 C 16.575,20.01 16.371,19.47 16.191,18.944 v 0 l -0.503,-1.583 c -0.314,-1.047 -0.623,-1.962 -0.945,-2.797 v 0 c -0.351,-0.915 -0.733,-1.749 -1.13,-2.481 v 0 c -0.306,-0.56 -0.789,-1.332 -1.356,-1.845 v 0 C 11.742,9.785 11.305,9.603 10.777,9.608 v 0 c -0.504,0.01 -1.114,0.288 -1.712,0.786 v 0 C 8.59,10.778 8.094,11.313 7.51,12.072 v 0 c -0.453,0.592 -0.912,1.276 -1.366,2.034 v 0 c -0.766,1.289 -1.528,2.746 -2.266,4.331 v 0 c -1.388,2.986 -2.295,5.561 -3.111,7.73 v 0 H 0.766 c -0.038,0.119 -0.124,0.214 -0.235,0.259 v 0 c -0.042,0.018 -0.088,0.03 -0.138,0.03 v 0 c -0.11,0 -0.217,-0.023 -0.288,-0.101"/></g></g></g></g><g id="g58"><g clip-path="url(#clipPath64)" id="g60"><g transform="translate(40.9619,27.3772)" id="g66"><path id="path68" style="fill:#393f6b;fill-opacity:1;fill-rule:nonzero;stroke:none" d="m 0,0 c -0.442,0 -0.813,-0.309 -0.947,-0.733 l -0.046,-0.226 -0.486,-2.396 c -0.155,-0.792 -0.337,-1.64 -0.519,-2.479 l -0.091,-0.421 c -0.43,-1.971 -0.896,-3.971 -1.389,-5.947 -0.526,-2.112 -1.099,-4.108 -1.703,-5.931 -0.351,-1.054 -0.712,-1.986 -1.069,-2.776 -0.195,-0.435 -0.396,-0.848 -0.623,-1.207 -0.225,-0.358 -0.975,-1.936 -2.097,-0.167 -0.196,0.309 -0.424,0.685 -0.669,1.161 -0.89,1.77 -1.694,3.91 -2.378,5.776 l -0.504,1.388 c -0.52,1.437 -1.059,2.917 -1.654,4.394 -0.06,0.15 -0.119,0.3 -0.18,0.451 -0.384,0.93 -0.857,2.031 -1.446,3.14 -0.326,0.612 -0.627,1.109 -0.948,1.563 -0.335,0.467 -0.749,1.011 -1.385,1.488 -0.344,0.254 -0.683,0.43 -1.034,0.534 -0.396,0.12 -0.847,0.138 -1.236,0.051 -0.378,-0.081 -0.75,-0.251 -1.111,-0.504 -0.33,-0.235 -0.587,-0.502 -0.816,-0.756 -0.485,-0.567 -0.817,-1.134 -1.076,-1.613 0,0 3.028,0.427 4.845,-2.666 0.02,-0.032 0.04,-0.065 0.059,-0.099 0.055,-0.096 0.109,-0.197 0.162,-0.304 0.365,-0.742 0.778,-1.603 1.238,-2.744 0.549,-1.372 1.067,-2.775 1.615,-4.261 0.222,-0.604 0.447,-1.213 0.675,-1.823 0.348,-0.935 0.765,-2.039 1.215,-3.138 0.353,-0.862 0.837,-1.999 1.448,-3.138 0.229,-0.427 0.546,-0.991 0.943,-1.559 0.327,-0.463 0.744,-1.005 1.346,-1.494 0.324,-0.254 0.648,-0.441 0.985,-0.564 0.39,-0.145 0.816,-0.196 1.206,-0.143 0.485,0.06 0.88,0.261 1.127,0.418 0.314,0.2 0.607,0.446 0.85,0.711 0.522,0.559 0.862,1.13 1.14,1.622 0.279,0.503 0.534,1.036 0.779,1.622 0.402,0.965 0.765,1.993 1.143,3.234 0.666,2.194 1.153,4.353 1.581,6.36 0.385,1.807 0.751,3.769 1.154,6.177 l 0.082,0.495 c 0.139,0.841 0.275,1.66 0.399,2.519 l 0.364,2.575 0.05,0.346 C 1,-1.058 1,-1.051 1.001,-1.044 0.985,-0.465 0.545,0 0,0"/></g></g></g></g></symbol><symbol id="logo_gray" viewBox="0 0 82 20"><path fill="#adb0c2" d="M36.9 8.2c2.9 0 5.1 2.2 5.1 5.1 0 .2 0 .6-.1.8 0 .3-.3.5-.5.5h-8.1c.1 1.9 1.8 3.6 3.8 3.6 1.2 0 2.1-.4 2.8-.8.4-.2.6-.4.8-.1.2.2.3.4.5.6.2.3.3.4-.1.7-.7.6-2.2 1.4-4.1 1.4-3.4 0-5.5-2.7-5.5-5.9-.1-3.2 2.1-5.9 5.4-5.9zm3.2 4.8c-.1-1.6-1.4-3.1-3.1-3.1-1.9 0-3.3 1.3-3.5 3.1h6.6zM45 .6c0-.3.3-.5.5-.5h.9c.3 0 .5.3.5.5v8.3s1.2-.7 3-.7c3.4 0 5.4 2.6 5.4 5.9 0 3.2-2.2 5.9-5.1 5.9-2.1 0-3.4-1.5-3.4-1.5l-.2.8c-.1.3-.2.4-.5.4h-.6c-.3 0-.5-.3-.5-.5V.6zm5 17.6c2.1 0 3.3-1.9 3.3-4.1 0-2.2-1.2-4-3.7-4-1.5 0-2.7.7-2.7.7v5.6c.1 0 1.1 1.8 3.1 1.8zm8-13.5c0-.8.6-1.3 1.3-1.3.8 0 1.3.6 1.3 1.3 0 .7-.6 1.3-1.3 1.3-.7 0-1.3-.6-1.3-1.3zm.4 4.3c0-.3.3-.5.5-.5h.9c.3 0 .5.3.5.5v10.2c0 .3-.3.5-.5.5H59c-.3 0-.5-.3-.5-.5V9zm5.9 0c0-.3.3-.5.5-.5h.5c.3 0 .4.1.4.3l.3.9s1.3-1.5 3.6-1.5c1.7 0 2.9.6 3.6 1.8.1-.1 1.9-1.8 4.2-1.8 3.3 0 4.3 2.1 4.3 5v5.9c0 .3-.3.5-.5.5h-.9c-.3 0-.5-.3-.5-.5v-5.9c0-2.1-.9-3.2-2.5-3.2-1.8 0-3 1.2-3.4 1.6.1.5.1 1 .1 1.6v5.9c0 .3-.3.5-.5.5h-.9c-.3 0-.5-.3-.5-.5v-5.9c0-2.1-1-3.2-2.7-3.2-2 0-3.2 1.6-3.2 1.6v7.5c0 .3-.3.5-.5.5h-.9c-.3 0-.5-.3-.5-.5V9zM29.9 0c-.3 0-.6.2-.7.5v.2l-.4 1.8c-.1.6-.2 1.2-.4 1.8l-.1.3c-.3 1.4-.7 2.9-1 4.3-.4 1.5-.8 3-1.2 4.3-.3.8-.5 1.5-.8 2-.1.3-.3.6-.5.9-.2.3-.7 1.4-1.5.1-.1-.2-.3-.5-.5-.8-.7-1.3-1.2-2.9-1.7-4.2l-.4-1c-.3-1.1-.7-2.1-1.1-3.2 0-.1-.1-.2-.1-.3-.3-.7-.6-1.5-1.1-2.3-.2-.4-.5-.8-.7-1.1-.2-.3-.5-.7-1-1.1-.3-.2-.5-.3-.8-.4-.3-.1-.6-.1-.9 0-.3.1-.5.2-.8.4l-.6.6c-.4.2-.6.6-.8 1 0 0 2.2-.3 3.5 2v.1c0 .1.1.1.1.2.3.5.6 1.2.9 2 .4 1 .8 2 1.2 3.1.2.4.3.9.5 1.3.3.7.6 1.5.9 2.3.3.6.6 1.5 1.1 2.3.2.3.4.7.7 1.1.2.3.5.7 1 1.1.2.2.5.3.7.4.3.1.6.1.9.1.4 0 .6-.2.8-.3.2-.1.4-.3.6-.5.4-.4.6-.8.8-1.2l.6-1.2c.3-.7.6-1.5.8-2.4.5-1.6.8-3.2 1.2-4.6.3-1.3.5-2.8.8-4.5l.1-.4.3-1.8.3-1.9V.7c0-.4-.3-.7-.7-.7z"/><linearGradient id="a" gradientUnits="userSpaceOnUse" x1="-2" y1="49.991" x2="14.369" y2="49.991" gradientTransform="matrix(1 0 0 -1 2 58)"><stop offset="0" stop-color="#a2a5ba"/><stop offset="1" stop-color="#4d517a"/></linearGradient><path d="M12.8 3.8L12.2 5c-.2.4-.3.8-.4 1.2l-.4 1.2c-.2.8-.5 1.4-.7 2-.3.7-.5 1.3-.8 1.8-.2.4-.6 1-1 1.4-.3.3-.7.4-1 .4-.4 0-.8-.2-1.3-.6-.3-.3-.7-.7-1.1-1.2-.3-.4-.7-.9-1-1.5-.6-1-1.1-2-1.7-3.2C1.8 4.3 1.1 2.4.5.9.5.8.4.7.3.7H.2C.1.7 0 .7 0 .8v.3c.4 1.7 1 3.8 1.9 6.1.4 1 .8 2.2 1.5 3.5.3.7.7 1.2 1 1.8.4.7.9 1.2 1.3 1.7.3.3.6.5.9.7.4.2.7.4 1.1.4.4.1.8 0 1.2-.1.4-.1.7-.3 1.1-.6.7-.6 1.2-1.3 1.6-1.9.4-.6.7-1.3 1.1-2.1.3-.7.6-1.4.8-2.3l.4-1c.1-.3.3-.7.4-1 .6-1.7 1.5-1.8 2.2-.6-1.5-2.4-3.7-1.9-3.7-1.9z" fill="url(#a)"/></symbol><symbol id="menu-mobile" viewBox="925.5 31 33.5 25">
  
  <g id="Group_6" data-name="Group 6" transform="translate(-641 -43)">
    <g id="Group_5" data-name="Group 5">
      <g id="Group_3" data-name="Group 3" transform="translate(8.5)">
        <line id="Line_2" data-name="Line 2" class="cls-1" x2="33.5" transform="translate(1558 75.5)"/>
        <line id="Line_3" data-name="Line 3" class="cls-1" x2="33.5" transform="translate(1558 86.5)"/>
        <line id="Line_4" data-name="Line 4" class="cls-1" x2="33.5" transform="translate(1558 97.5)"/>
      </g>
    </g>
  </g>
</symbol><symbol id="msn" viewBox="0 0 40 40">
<g>
	<path fill="#3DD3A1" d="M20.3,0C9.5,0,0.7,8.8,0.7,19.7c0,3.4,0.9,6.8,2.6,9.8L0,39.1c-0.1,0.2,0,0.5,0.1,0.7C0.3,39.9,0.5,40,0.7,40
		c0.1,0,0.1,0,0.2,0l10.6-2.8c2.8,1.4,5.8,2.1,8.9,2.1c10.8,0,19.7-8.8,19.7-19.7C40,8.8,31.2,0,20.3,0"/>
</g>
<g>
	<path fill="#FFFFFF" d="M13.6,19.7c0,1.4-1.2,2.6-2.6,2.6c-1.4,0-2.6-1.2-2.6-2.6c0-1.4,1.2-2.6,2.6-2.6C12.4,17,13.6,18.2,13.6,19.7"/>
	<path fill="#FFFFFF" d="M22.9,19.7c0,1.4-1.2,2.6-2.6,2.6c-1.4,0-2.6-1.2-2.6-2.6c0-1.4,1.2-2.6,2.6-2.6C21.8,17,22.9,18.2,22.9,19.7"/>
	<path fill="#FFFFFF" d="M32.3,19.7c0,1.4-1.2,2.6-2.6,2.6c-1.4,0-2.6-1.2-2.6-2.6c0-1.4,1.2-2.6,2.6-2.6C31.2,17,32.3,18.2,32.3,19.7"/>
</g>
</symbol><symbol id="phone-call" viewBox="0 0 512 512">
<g>
	<g>
		<path fill="#68cdbc" d="M436.992,74.953c-99.989-99.959-262.08-99.935-362.039,0.055s-99.935,262.08,0.055,362.039s262.08,99.935,362.039-0.055
			c48.006-48.021,74.968-113.146,74.953-181.047C511.986,188.055,485.005,122.951,436.992,74.953z M387.703,356.605
			c-0.011,0.011-0.022,0.023-0.034,0.034v-0.085l-12.971,12.885c-16.775,16.987-41.206,23.976-64.427,18.432
			c-23.395-6.262-45.635-16.23-65.877-29.525c-18.806-12.019-36.234-26.069-51.968-41.899
			c-14.477-14.371-27.483-30.151-38.827-47.104c-12.408-18.242-22.229-38.114-29.184-59.051
			c-7.973-24.596-1.366-51.585,17.067-69.717l15.189-15.189c4.223-4.242,11.085-4.257,15.326-0.034
			c0.011,0.011,0.023,0.022,0.034,0.034l47.957,47.957c4.242,4.223,4.257,11.085,0.034,15.326c-0.011,0.011-0.022,0.022-0.034,0.034
			l-28.16,28.16c-8.08,7.992-9.096,20.692-2.389,29.867c10.185,13.978,21.456,27.131,33.707,39.339
			c13.659,13.718,28.508,26.197,44.373,37.291c9.167,6.394,21.595,5.316,29.525-2.56l27.221-27.648
			c4.223-4.242,11.085-4.257,15.326-0.034c0.011,0.011,0.022,0.022,0.034,0.034l48.043,48.128
			C391.911,345.502,391.926,352.363,387.703,356.605z"/>
	</g>
</g>
<g>
</g>
<g>
</g>
<g>
</g>
<g>
</g>
<g>
</g>
<g>
</g>
<g>
</g>
<g>
</g>
<g>
</g>
<g>
</g>
<g>
</g>
<g>
</g>
<g>
</g>
<g>
</g>
<g>
</g>
</symbol><symbol id="skype" viewBox="-21 -22 682.66535 682"><path fill="#adb0c2" d="m617.347656 372.777344c-.207031 1.125-.558594-1.015625 0 0 3.300782-17.984375 5.035156-36.386719 5.035156-54.785156 0-40.796876-7.984374-80.371094-23.765624-117.632813-15.226563-35.988281-37.007813-68.308594-64.777344-96.058594-27.726563-27.753906-60.070313-49.53125-96.042969-64.753906-37.246094-15.761719-76.824219-23.75-117.617187-23.75-19.226563 0-38.484376 1.804687-57.226563 5.40625-.039063.007813-.140625.019531-.140625.019531-25.714844-13.671875-54.628906-20.972656-83.902344-20.972656-47.789062 0-92.71875 18.609375-126.507812 52.410156-33.785156 33.789063-52.402344 78.722656-52.402344 126.507813 0 30.417969 7.828125 60.320312 22.507812 86.738281-2.976562 17.121094-4.550781 34.617188-4.550781 52.085938 0 40.804687 7.988281 80.375 23.769531 117.640624 15.203126 36.003907 36.992188 68.300782 64.738282 96.054688 27.769531 27.75 60.066406 49.5625 96.078125 64.746094 37.25 15.792968 76.839843 23.785156 117.632812 23.785156 17.757813 0 35.554688-1.621094 52.929688-4.703125 26.765625 15.144531 57.070312 23.191406 88.015625 23.191406 47.777344 0 92.6875-18.574219 126.480468-52.390625 33.796876-33.769531 52.398438-78.710937 52.398438-126.496094 0-30.519531-7.867188-60.519531-22.652344-87.042968zm-295.964844 130.296875c-107.363281 0-155.398437-52.78125-155.398437-92.34375 0-20.285157 14.980469-34.511719 35.625-34.511719 45.949219 0 34.050781 65.972656 119.773437 65.972656 43.886719 0 68.117188-23.828125 68.117188-48.210937 0-14.667969-7.234375-30.925781-36.132812-38.046875l-95.492188-23.839844c-76.910156-19.285156-90.863281-60.863281-90.863281-99.945312 0-81.144532 76.402343-111.609376 148.148437-111.609376 66.09375 0 144.003906 36.527344 144.003906 85.207032 0 20.859375-18.0625 32.988281-38.699218 32.988281-39.210938 0-32-54.273437-110.984375-54.273437-39.191407 0-60.902344 17.75-60.902344 43.144531 0 25.351562 30.957031 33.449219 57.832031 39.570312l70.683594 15.691407c77.425781 17.25 97.054688 62.453124 97.054688 105.03125.007812 65.9375-50.609376 115.175781-152.765626 115.175781zm0 0"/></symbol><symbol id="sn" viewBox="0 0 40 40">

<path fill="#3B4269" d="M20,0C9,0,0,9,0,20c0,11,9,20,20,20s20-9,20-20C40,9,31,0,20,0z M17.8,20c0,0.4-0.1,0.8-0.2,1.2l5.6,2.7
	c0.6-0.7,1.6-1.1,2.6-1.1c1.9,0,3.5,1.6,3.5,3.5c0,1.9-1.6,3.5-3.5,3.5c-1.9,0-3.5-1.6-3.5-3.5c0-0.2,0-0.4,0-0.5l-5.9-2.9
	c-0.6,0.4-1.3,0.7-2.1,0.7c-1.9,0-3.5-1.6-3.5-3.5c0-1.9,1.6-3.5,3.5-3.5c0.8,0,1.5,0.3,2.1,0.7l5.9-2.9c0-0.2,0-0.4,0-0.5
	c0-1.9,1.6-3.5,3.5-3.5c1.9,0,3.5,1.6,3.5,3.5c0,1.9-1.6,3.5-3.5,3.5c-1,0-1.9-0.4-2.6-1.1l-5.6,2.7C17.7,19.2,17.8,19.6,17.8,20z"/>
</symbol><symbol id="step_01" viewBox="0 0 74 74">
<g id="&#x421;&#x43B;&#x43E;&#x439;_1">
	<circle fill="#2CD3B8" cx="37" cy="37" r="37"/>
</g>
<g id="&#x421;&#x43B;&#x43E;&#x439;_2">
	<path fill="#FFFFFF" d="M41.8,37.5c3.5,0,6.4-2.8,6.4-6.3c0-3.4-2.9-6.2-6.4-6.2s-6.4,2.8-6.4,6.2C35.4,34.7,38.3,37.5,41.8,37.5z
		 M27.5,34.4v-4.7h-3.2v4.7h-4.8v3.1h4.8v4.7h3.2v-4.7h4.8v-3.1H27.5z M41.8,40.6c-4.3,0-12.7,2-12.7,6.2V50h25.5v-3.1
		C54.5,42.7,46.1,40.6,41.8,40.6z"/>
</g>
</symbol><symbol id="step_02" viewBox="0 0 74 74">
<g id="&#x421;&#x43B;&#x43E;&#x439;_1">
	<circle fill="#2CD3B8" cx="37" cy="37" r="37"/>
</g>
<g id="&#x421;&#x43B;&#x43E;&#x439;_3">
	<path fill="#FFFFFF" d="M47.1,25.5L32.6,39.8l-5.6-5.5l-4.4,4.4l10.1,9.9l18.9-18.6L47.1,25.5z"/>
</g>
</symbol><symbol id="step_03" viewBox="0 0 74 74">
<style type="text/css">
	.st0{fill:#2CD3B8;}
	.st1{fill:#FFFFFF;}
</style>
<g id="&#x421;&#x43B;&#x43E;&#x439;_1">
	<circle fill="#2CD3B8" cx="37" cy="37" r="37"/>
</g>
<g id="&#x421;&#x43B;&#x43E;&#x439;_4">
	<path fill="#FFFFFF" d="M54.9,35c-0.1-0.5-0.6-0.9-1.2-0.9c-1.6,0-3.1-1-3.7-2.5c-0.6-1.5-0.2-3.3,1-4.5c0.4-0.4,0.4-0.9,0.1-1.4
		c-0.8-1.1-1.8-2-2.9-2.9c-0.4-0.3-1-0.3-1.4,0.1c-1.1,1.2-3,1.6-4.5,1c-1.5-0.7-2.5-2.2-2.4-3.9c0-0.5-0.4-1-0.9-1.1
		c-1.3-0.2-2.7-0.2-4,0c-0.5,0.1-0.9,0.5-0.9,1c0.1,1.7-0.9,3.2-2.5,3.8c-1.5,0.6-3.4,0.2-4.5-1c-0.4-0.4-0.9-0.4-1.4-0.1
		c-1.1,0.8-2.1,1.8-2.9,2.9c-0.3,0.4-0.3,1,0.1,1.4c1.3,1.1,1.7,2.9,1,4.5c-0.6,1.5-2.2,2.4-3.9,2.4c-0.6,0-1,0.4-1,0.9
		c-0.2,1.4-0.2,2.7,0,4.1c0.1,0.5,0.7,0.9,1.2,0.9c1.6,0,3.1,0.9,3.7,2.5c0.6,1.5,0.2,3.3-1,4.5c-0.4,0.4-0.4,0.9-0.1,1.4
		c0.8,1.1,1.8,2,2.8,2.9c0.4,0.3,1,0.3,1.4-0.1c1.1-1.2,3-1.6,4.5-1c1.6,0.6,2.5,2.2,2.4,3.9c0,0.5,0.4,1,0.9,1.1
		C35.6,55,36.3,55,37,55c0.7,0,1.3,0,2-0.1c0.5-0.1,0.9-0.5,0.9-1c-0.1-1.7,0.9-3.2,2.5-3.8c1.5-0.6,3.4-0.2,4.5,1
		c0.4,0.4,0.9,0.4,1.4,0.1c1.1-0.8,2.1-1.8,2.9-2.9c0.3-0.4,0.3-1-0.1-1.4c-1.3-1.1-1.7-2.9-1-4.5C50.5,41,52,40,53.6,40l0.2,0
		c0.5,0,1-0.4,1.1-0.9C55,37.7,55,36.4,54.9,35z M37,47.4c-5.7,0-10.4-4.6-10.4-10.4S31.3,26.6,37,26.6S47.4,31.3,47.4,37
		c0,1.9-0.5,3.8-1.5,5.3l-4.5-4.5c0.3-0.8,0.5-1.6,0.5-2.5c0-1.7-0.7-3.3-1.9-4.5c-1.2-1.2-2.8-1.9-4.5-1.9c-0.6,0-1.1,0.1-1.7,0.2
		c-0.2,0.1-0.4,0.3-0.5,0.5c-0.1,0.2,0,0.5,0.2,0.7c0,0,2.2,2.3,3,3c0.1,0.1,0.1,0.3,0.1,0.3l0,0c-0.1,0.8-0.2,1.8-0.3,2.2
		c0,0,0,0,0,0c0,0,0,0,0,0.1c-0.4,0.1-1.4,0.3-2.2,0.3l0,0l0,0c0,0,0,0,0,0c-0.1,0-0.2,0-0.3-0.1c-0.8-0.8-2.9-2.9-2.9-2.9
		c-0.2-0.2-0.4-0.2-0.5-0.2c-0.3,0-0.6,0.2-0.7,0.5c-0.6,2.2,0,4.6,1.6,6.2c1.2,1.2,2.8,1.9,4.5,1.9c0.9,0,1.7-0.2,2.5-0.5l4.6,4.6
		C41,46.8,39.1,47.4,37,47.4z"/>
</g>
</symbol><symbol id="step_04" viewBox="0 0 74 74">
<g id="&#x421;&#x43B;&#x43E;&#x439;_1">
	<circle fill="#2CD3B8" cx="37" cy="37" r="37"/>
</g>
<g id="&#x421;&#x43B;&#x43E;&#x439;_3">
	<path fill-rule="evenodd" clip-rule="evenodd" fill="#FFFFFF" d="M57,26.3l-0.3,2.5c-0.1,0.8-0.2,1.6-0.4,2.4l-0.1,0.5c-0.4,2.3-0.7,4.2-1.1,5.9c-0.4,1.9-0.9,4-1.5,6.1
		c-0.4,1.2-0.7,2.2-1.1,3.1c-0.2,0.6-0.5,1.1-0.7,1.6c-0.3,0.5-0.6,1-1.1,1.6c-0.2,0.3-0.5,0.5-0.8,0.7c-0.2,0.2-0.6,0.3-1.1,0.4
		c-0.4,0.1-0.8,0-1.1-0.1c-0.3-0.1-0.6-0.3-0.9-0.5c-0.6-0.5-1-1-1.3-1.4c-0.4-0.5-0.7-1.1-0.9-1.5c-0.6-1.1-1-2.2-1.4-3
		c-0.4-1-0.8-2.1-1.2-3c-0.2-0.6-0.4-1.2-0.6-1.8c-0.5-1.4-1-2.8-1.5-4.1c-0.4-1.1-0.8-1.9-1.2-2.6c0-0.1-0.1-0.2-0.2-0.3
		c0,0,0-0.1-0.1-0.1c0,0,0-0.1-0.1-0.1c-0.9-1.3-2-1.2-2.8,0.9c-0.2,0.4-0.3,0.8-0.5,1.3L34.5,36c-0.4,1.1-0.7,2.1-1.1,3
		c-0.5,1.2-0.9,2-1.4,2.8c-0.5,0.7-1.1,1.7-2,2.4c-0.5,0.4-0.9,0.6-1.4,0.8c-0.5,0.2-1,0.2-1.6,0.1c-0.5-0.1-0.9-0.3-1.4-0.5
		c-0.4-0.2-0.8-0.5-1.1-0.9c-0.6-0.6-1.2-1.3-1.7-2.2c-0.5-0.7-0.9-1.5-1.3-2.3c-0.8-1.7-1.5-3.4-1.9-4.6c-1.1-3.1-1.9-5.9-2.4-8
		c0-0.1,0-0.2-0.1-0.2c0-0.1,0-0.2,0.1-0.3c0.1-0.1,0.2-0.1,0.3-0.1c0,0,0.1,0,0.1,0c0.1,0,0.2,0.1,0.2,0.3c0.8,2.1,1.6,4.5,3,7.4
		c0.7,1.5,1.4,2.9,2.2,4.2c0.4,0.7,0.9,1.4,1.3,2c0.6,0.7,1,1.2,1.5,1.6c0.6,0.5,1.1,0.7,1.6,0.8c0.5,0,0.9-0.2,1.4-0.6
		c0.5-0.5,1-1.2,1.3-1.8c0.4-0.7,0.7-1.5,1.1-2.4c0.3-0.8,0.6-1.7,0.9-2.7l0.5-1.5c0.2-0.5,0.4-1,0.6-1.5c0.2-0.6,0.5-1.1,0.7-1.6
		c0,0,0,0,0,0c0,0,0,0,0,0c0,0,0,0,0,0l0,0c0.2-0.5,0.6-1,1-1.5c0.2-0.3,0.5-0.5,0.8-0.7c0.3-0.3,0.7-0.4,1.1-0.5
		c0.4-0.1,0.8-0.1,1.2,0c0.3,0.1,0.7,0.3,1,0.5c0.6,0.5,1,1,1.3,1.4c0.3,0.4,0.6,0.9,0.9,1.5c0.6,1.1,1,2.1,1.4,3
		c0.1,0.1,0.1,0.3,0.2,0.4c0.6,1.4,1.1,2.8,1.6,4.2l0.5,1.3c0.7,1.8,1.4,3.8,2.3,5.5c0.2,0.5,0.5,0.8,0.6,1.1c1.1,1.7,1.8,0.2,2-0.2
		c0.2-0.3,0.4-0.7,0.6-1.2c0.3-0.8,0.7-1.6,1-2.7c0.6-1.7,1.1-3.7,1.6-5.7c0.5-1.9,0.9-3.8,1.3-5.7l0.1-0.4c0.2-0.8,0.4-1.6,0.5-2.4
		l0.5-2.3l0-0.2c0.1-0.4,0.5-0.7,0.9-0.7c0.5,0,0.9,0.4,0.9,0.9c0,0,0,0,0,0L57,26.3z"/>
</g>
</symbol><symbol id="step_05" viewBox="0 0 74 74">
<g id="&#x421;&#x43B;&#x43E;&#x439;_1">
	<circle fill="#2CD3B8" cx="37" cy="37" r="37"/>
</g>
<g id="&#x421;&#x43B;&#x43E;&#x439;_2">
	<g>
		<g>
			<path fill="#FFFFFF" d="M51.5,34l-0.6,0v9.4h0.6c0.9,0,1.6-0.7,1.6-1.6v-6.3C53,34.7,52.3,34,51.5,34z M21,35.6v6.1
				c0,0.9,0.7,1.7,1.6,1.7h0.6V34l-0.6,0C21.7,34,21,34.7,21,35.6z M49.4,35.3c0-0.7-0.1-1.4-0.2-2.1c0-0.2-0.1-0.5-0.2-0.7v-1.8
				c0-6.8-5.4-12.3-12-12.3S25,24,25,30.8v1.2c-0.1,0.2-0.1,0.3-0.2,0.5c-0.2,0.9-0.4,1.9-0.4,2.8v11.6c0,0.5,0.4,0.8,0.8,0.8h2.5
				c0.8,4.4,4.7,7.8,9.3,7.8c3.6,0,6.8-2.1,8.4-5.2c2.7-0.2,4.9-2.5,4.9-5.3h-0.9V35.3z M43.9,47.9h-5.9c-0.7,0-1.2,0.6-1.2,1.2
				c0,0.7,0.5,1.2,1.2,1.2h4.6C41.3,52,39.3,53,37.1,53c-3.9,0-7-3.2-7-7.2V38c0.9-0.6,2.5-1.7,3.6-3.2c1.7,1.4,5.1,3.5,10.5,3.7
				v7.3h0C44.1,46.5,44,47.2,43.9,47.9z M38.8,24.4h-3.6c-2.7,0-5.2,1-7,2.7C29.5,23.5,33,21,37,21c4.1,0,7.7,2.7,9,6.4
				C44.2,25.6,41.6,24.4,38.8,24.4z M34.6,40.3h-1.9c-0.7,0-1.2,0.6-1.2,1.2c0,0.7,0.5,1.2,1.2,1.2h1.9c0.7,0,1.2-0.6,1.2-1.2
				C35.8,40.9,35.2,40.3,34.6,40.3z M41.4,40.3h-1.9c-0.7,0-1.2,0.6-1.2,1.2c0,0.7,0.5,1.2,1.2,1.2h1.9c0.7,0,1.2-0.6,1.2-1.2
				C42.6,40.9,42,40.3,41.4,40.3z"/>
		</g>
	</g>
</g>
</symbol><symbol id="step_06" viewBox="0 0 74 74">
<g id="&#x421;&#x43B;&#x43E;&#x439;_1">
	<circle fill="#2CD3B8" cx="37" cy="37" r="37"/>
</g>
<g id="&#x421;&#x43B;&#x43E;&#x439;_2">
	<g>
		<g>
			<path fill="#FFFFFF" d="M41.6,49h-3.4v-3h-2.4v3h-3.4c-0.7,0-1.2,0.6-1.2,1.2c0,0.7,0.5,1.2,1.2,1.2h9.2c0.7,0,1.2-0.6,1.2-1.2
				C42.8,49.6,42.3,49,41.6,49z M21,42v1.5c0,0.5,0.4,1,1,1H52c0.5,0,1-0.4,1-1V42H21z M37,26.7c2.6,0,5,0.7,7.1,2l0.8-1.1
				c0.3-0.4,0.8-0.4,1.1-0.2c0.4,0.3,0.4,0.8,0.2,1.1l-0.8,1.1c3.2,2.5,5.2,6.3,5.3,10.7H53V23.5c0-0.5-0.4-1-1-1H22
				c-0.5,0-1,0.4-1,1v16.9h2.3C23.4,32.8,29.5,26.7,37,26.7z M44,39.8c-0.1-0.1-0.1-0.2-0.1-0.3c-0.3-1.8-1.2-3.3-2.5-4.3L39,38.5
				c0.4,0.3,0.7,0.8,0.9,1.3H44z M37,37.8c0.2,0,0.3,0,0.5,0l2.6-3.5c-0.9-0.5-2-0.7-3.1-0.7c-2,0-3.8,0.8-5.1,2.2c0,0,0,0,0,0
				c0,0.1-0.1,0.1-0.1,0.2c-0.8,1-1.4,2.2-1.6,3.5c0,0.1-0.1,0.2-0.1,0.3h4.1C34.5,38.6,35.7,37.8,37,37.8z M49.1,39.8
				c-0.2-3.6-2-6.7-4.6-8.8l-2.1,2.9c0.1,0.1,0.1,0.1,0.2,0.2c1.5,1.3,2.6,3.2,2.9,5.2c0,0.2,0,0.4-0.1,0.6H49.1z M27.2,33.4
				C27.2,33.4,27.2,33.4,27.2,33.4c-1.3,1.8-2.2,4-2.3,6.4h3.7c-0.1-0.2-0.2-0.4-0.1-0.6c0.2-1.3,0.8-2.6,1.6-3.7L27.2,33.4z
				 M31.4,34c1.4-1.2,3-1.9,4.8-2v-3.6c-3.1,0.2-5.9,1.6-7.9,3.7l2.9,2.1C31.2,34.2,31.3,34.1,31.4,34z M43.1,30.1
				c-1.6-0.9-3.4-1.5-5.3-1.6V32c1.1,0.1,2.2,0.4,3.2,1L43.1,30.1z"/>
		</g>
	</g>
</g>
</symbol><symbol id="twitter" viewBox="0 0 97.637 97.637">
<g>
	<path fill="#adb0c2" d="M97.523,18.526c-0.14-0.165-0.371-0.221-0.568-0.131c-2.919,1.295-5.99,2.226-9.153,2.776
		c3.358-2.526,5.86-6.024,7.143-10.035c0.062-0.192-0.002-0.402-0.159-0.527c-0.158-0.125-0.377-0.141-0.55-0.038
		c-3.782,2.243-7.878,3.824-12.18,4.701c-3.812-3.956-9.135-6.219-14.644-6.219c-11.204,0-20.318,9.114-20.318,20.317
		c0,1.355,0.131,2.697,0.391,4c-15.518-0.958-30.028-8.408-39.894-20.509c-0.101-0.124-0.254-0.193-0.414-0.177
		c-0.159,0.012-0.301,0.102-0.381,0.239c-1.8,3.088-2.751,6.621-2.751,10.215c0,6.229,2.83,12.053,7.649,15.896
		c-2.481-0.298-4.904-1.079-7.089-2.292c-0.147-0.083-0.33-0.082-0.477,0.003c-0.147,0.084-0.24,0.24-0.244,0.41l-0.002,0.26
		c0,8.946,5.895,16.801,14.282,19.409c-2.209,0.356-4.501,0.332-6.754-0.098c-0.166-0.031-0.34,0.026-0.454,0.154
		c-0.113,0.128-0.151,0.307-0.099,0.469c2.515,7.85,9.503,13.355,17.637,14.041c-6.785,4.971-14.805,7.59-23.279,7.59
		c-1.561,0-3.133-0.093-4.673-0.274c-0.22-0.025-0.438,0.106-0.514,0.317c-0.076,0.213,0.005,0.451,0.195,0.572
		c9.17,5.881,19.773,8.988,30.664,8.988c35.625,0,56.913-28.938,56.913-56.914c0-0.779-0.015-1.554-0.046-2.327
		c3.843-2.811,7.142-6.252,9.802-10.235C97.675,18.929,97.662,18.692,97.523,18.526z"/>
</g>
<g>
</g>
<g>
</g>
<g>
</g>
<g>
</g>
<g>
</g>
<g>
</g>
<g>
</g>
<g>
</g>
<g>
</g>
<g>
</g>
<g>
</g>
<g>
</g>
<g>
</g>
<g>
</g>
<g>
</g>
</symbol><symbol id="vk" viewBox="0 0 96.496 96.496">
<g>
	<path fill="#adb0c2" d="M92.499,65.178c-2.873-3.446-6.254-6.387-9.453-9.51c-2.886-2.815-3.068-4.448-0.748-7.697
		c2.532-3.546,5.255-6.956,7.81-10.486c2.385-3.299,4.823-6.589,6.078-10.539c0.796-2.513,0.092-3.623-2.485-4.063
		c-0.444-0.077-0.903-0.081-1.355-0.081l-15.289-0.018c-1.883-0.028-2.924,0.793-3.59,2.462c-0.899,2.256-1.826,4.51-2.897,6.687
		c-2.43,4.936-5.144,9.707-8.949,13.747c-0.839,0.891-1.767,2.017-3.169,1.553c-1.754-0.64-2.271-3.53-2.242-4.507l-0.015-17.647
		c-0.34-2.521-0.899-3.645-3.402-4.135l-15.882,0.003c-2.12,0-3.183,0.819-4.315,2.145c-0.653,0.766-0.85,1.263,0.492,1.517
		c2.636,0.5,4.121,2.206,4.515,4.849c0.632,4.223,0.588,8.463,0.224,12.703c-0.107,1.238-0.32,2.473-0.811,3.629
		c-0.768,1.817-2.008,2.187-3.637,1.069c-1.475-1.012-2.511-2.44-3.525-3.874c-3.809-5.382-6.848-11.186-9.326-17.285
		c-0.716-1.762-1.951-2.83-3.818-2.859c-4.587-0.073-9.175-0.085-13.762,0.004c-2.76,0.052-3.583,1.392-2.459,3.894
		c4.996,11.113,10.557,21.917,17.816,31.759c3.727,5.051,8.006,9.51,13.534,12.67c6.265,3.582,13.009,4.66,20.112,4.328
		c3.326-0.156,4.325-1.021,4.479-4.336c0.104-2.268,0.361-4.523,1.48-6.561c1.098-2,2.761-2.381,4.678-1.137
		c0.959,0.623,1.767,1.416,2.53,2.252c1.872,2.048,3.677,4.158,5.62,6.137c2.437,2.48,5.324,3.945,8.954,3.646L93.744,75.5
		c2.264-0.148,3.438-2.924,2.138-5.451C94.969,68.279,93.771,66.703,92.499,65.178z"/>
</g>
<g>
</g>
<g>
</g>
<g>
</g>
<g>
</g>
<g>
</g>
<g>
</g>
<g>
</g>
<g>
</g>
<g>
</g>
<g>
</g>
<g>
</g>
<g>
</g>
<g>
</g>
<g>
</g>
<g>
</g>
</symbol><symbol id="yad" viewBox="0 0 40 40">

  
  <g>
    <path fill="url(#SVGID_3_)" d="M9.3,30.2c-3-1.8-3.5-2.6-3.5-6.1V17c0-0.5,0.1-0.7,0.3-1.1c0.3-0.6,1-0.9,1.6-0.9c0.3,0,0.6,0.1,0.9,0.2
        l5.7,3.3c1.7,1,2.9,3.1,3.1,5.4l0,10.1c0,0.3-0.2,0.5-0.5,0.5c-0.1,0-0.2,0-0.2-0.1l0,0L9.3,30.2z M34.1,15.2
        c0,0.1,0.1,0.2,0.1,0.2l0,0l0,8.7c-0.1,3.7-0.6,4.4-4.1,6.4l-5.8,3.4c-0.4,0.2-0.7,0.3-1.1,0.3c-0.7,0-1.3-0.4-1.6-0.9
        c-0.2-0.3-0.3-0.6-0.3-0.9v-6.7c0-2,1.3-4.2,3.2-5.5l8.9-5.1v0C33.7,14.9,34,14.9,34.1,15.2 M17.8,16.1l-9-5.1
        c-0.2-0.1-0.3-0.4-0.2-0.7c0-0.1,0.1-0.1,0.2-0.2v0l7.6-4.4C19.7,4,20.6,4,24.1,6l5.8,3.3c0.4,0.2,0.6,0.4,0.8,0.8
        c0.3,0.6,0.3,1.3,0,1.9c-0.2,0.3-0.4,0.5-0.7,0.7l-5.8,3.4c-0.9,0.5-1.9,0.8-3.1,0.8C20,16.9,18.9,16.6,17.8,16.1 M20,0
        c-1.3,0-2.6,0.3-3.7,1L5.6,7.3C3.4,8.6,2,11,2,13.6v12.8c0,2.6,1.4,5,3.6,6.3L16.3,39c1.1,0.7,2.4,1,3.7,1H20c1.3,0,2.6-0.3,3.7-1
        l10.7-6.3c2.2-1.3,3.6-3.7,3.6-6.3V13.6c0-2.6-1.4-5-3.6-6.3L23.7,1C22.6,0.3,21.3,0,20,0z"/>
  </g>
</symbol></svg>