<svg xmlns="http://www.w3.org/2000/svg" xmlns:xlink="http://www.w3.org/1999/xlink"><defs><linearGradient id="paint0_linear" x1="0" y1="0" x2="663" y2="0" gradientUnits="userSpaceOnUse"><stop stop-color="#4C9FB3"/><stop offset="1" stop-color="#31E1CF"/></linearGradient><clipPath id="clip0"><path fill="#fff" d="M0 0h683v100H0z"/></clipPath><filter id="filter0_d" x="0" y="-12" width="691" height="124" filterUnits="userSpaceOnUse" color-interpolation-filters="sRGB"><feFlood flood-opacity="0" result="BackgroundImageFix"/><feColorMatrix in="SourceAlpha" values="0 0 0 0 0 0 0 0 0 0 0 0 0 0 0 0 0 0 127 0"/><feOffset dx="16"/><feGaussianBlur stdDeviation="6"/><feColorMatrix values="0 0 0 0 0.549913 0 0 0 0 0.754167 0 0 0 0 0.737606 0 0 0 1 0"/><feBlend in2="BackgroundImageFix" result="effect1_dropShadow"/><feBlend in="SourceGraphic" in2="effect1_dropShadow" result="shape"/></filter><clipPath id="a" clipPathUnits="userSpaceOnUse"><path d="M0 27.377h113V0H0z"/></clipPath><clipPath id="c" clipPathUnits="userSpaceOnUse"><path d="M0 27.377h113V0H0z"/></clipPath><linearGradient id="b" spreadMethod="pad" gradientTransform="matrix(22.39992 0 0 -22.39992 0 16.42)" gradientUnits="userSpaceOnUse" y2="0" x2="1" y1="0" x1="0"><stop offset="0" stop-color="#5bc2b2"/><stop offset="1" stop-color="#2b2f81"/><stop offset="1" stop-color="#2b2f81"/></linearGradient><style>.cls-1{fill:none;stroke:#3fd6bc;stroke-width:3px}</style><linearGradient id="gradient" gradientUnits="userSpaceOnUse" x1="-87.086" y1="140" x2="-86.919" y2="140" gradientTransform="matrix(219.5379 -11.5055 10.3552 243.9254 17670.57 -35130.559)"><stop offset="0" stop-color="#6f00f9"/><stop offset="1" stop-color="#69bac0"/></linearGradient></defs><symbol id="01" viewBox="0 0 50 50"><g fill="#363B66"><path d="M48.2 10c-1.1-1.1-2.7-1.8-4.3-1.8-1.6 0-3.1.6-4.3 1.8L36 13.6V1.7C36 1 35.4.4 34.7.4H12.1c-.4 0-.7.1-1 .4L.4 11.5c-.3.3-.4.6-.4 1v36.2c0 .7.6 1.3 1.4 1.3h33.3c.7 0 1.3-.6 1.3-1.3v-18l12.2-12.2c1.1-1.1 1.8-2.7 1.8-4.3 0-1.5-.6-3.1-1.8-4.2M23.3 38.3l-4.5 1.2L20 35l3.3 3.3zm2.6-1.2l-4.8-4.8 17.1-17.1L43 20 25.9 37.1zM10.8 5v6.2H4.6L10.8 5zm22.5 42.3H2.7V13.8h9.4c.7 0 1.3-.6 1.3-1.3V3.1h19.9v13.2l-15 15.1c-.2.2-.3.4-.4.6l-2.4 9c-.1.5 0 1 .4 1.3.3.3.6.4 1 .4h.3l9-2.4c.2-.1.5-.2.6-.4l6.5-6.5v13.9zm13-30.6l-1.4 1.4-4.8-4.8 1.4-1.4c.6-.6 1.5-1 2.4-1 .9 0 1.7.3 2.4 1 .6.6 1 1.5 1 2.4 0 .9-.3 1.7-1 2.4"/><path d="M11.4 40.1H7.5c-.7 0-1.3.6-1.3 1.3 0 .7.6 1.3 1.3 1.3h3.9c.7 0 1.3-.6 1.3-1.3.1-.7-.5-1.3-1.3-1.3m.7-5.4H7.5c-.7 0-1.3.6-1.3 1.3 0 .7.6 1.3 1.3 1.3h4.6c.7 0 1.3-.6 1.3-1.3.1-.7-.5-1.3-1.3-1.3m1.4-5.4h-6c-.7 0-1.3.6-1.3 1.3 0 .7.6 1.3 1.3 1.3h5.9c.7 0 1.3-.6 1.3-1.3.1-.7-.5-1.3-1.2-1.3m-6-2.7h9.8c.7 0 1.3-.6 1.3-1.3 0-.7-.6-1.3-1.3-1.3H7.5c-.7 0-1.3.6-1.3 1.3 0 .7.6 1.3 1.3 1.3m0-5.4h15.3c.7 0 1.3-.6 1.3-1.3 0-.7-.6-1.3-1.3-1.3H7.5c-.7 0-1.3.6-1.3 1.3 0 .7.6 1.3 1.3 1.3m10-5.3h11.6c.7 0 1.3-.6 1.3-1.3 0-.7-.6-1.3-1.3-1.3H17.5c-.7 0-1.3.6-1.3 1.3-.1.6.5 1.3 1.3 1.3m0-5.4h11.6c.7 0 1.3-.6 1.3-1.3 0-.7-.6-1.3-1.3-1.3H17.5c-.7 0-1.3.6-1.3 1.3-.1.7.5 1.3 1.3 1.3"/></g></symbol><symbol id="02" viewBox="0 0 50 50"><g fill="#363B66"><path d="M43.4 28.5l-9.7-8.6c-.5-.5-1.3-.4-1.8.1s-.4 1.3.1 1.8l8.6 7.7-8.6 7.6c-.5.5-.6 1.3-.1 1.8.3.3.6.4 1 .4.3 0 .6-.1.9-.3l9.7-8.6c.3-.2.4-.6.4-1-.1-.3-.3-.7-.5-.9m-25.3-8.6c-.5-.5-1.3-.6-1.8-.1l-9.7 8.6c-.3.2-.4.6-.4 1s.2.7.4 1l9.7 8.6c.2.2.5.3.9.3s.7-.1 1-.4c.5-.5.4-1.3-.1-1.8l-8.6-7.7 8.6-7.7c.5-.4.5-1.2 0-1.8m10-.7c-.7-.2-1.4.2-1.6.9l-5.4 17.8c-.2.7.2 1.4.9 1.6.1 0 .2.1.4.1.6 0 1.1-.4 1.2-.9L29 20.9c.1-.8-.3-1.5-.9-1.7"/><path d="M48.7 0H1.3C.6 0 0 .6 0 1.3v47.4c0 .7.6 1.3 1.3 1.3h47.4c.7 0 1.3-.6 1.3-1.3V1.3c0-.7-.6-1.3-1.3-1.3m-1.3 7.7h-5.1V2.6h5.1v5.1zM10.3 2.6h29.5v5.1H10.3V2.6zm-7.7 0h5.1v5.1H2.6V2.6zm0 7.7h44.9v37.2H2.6V10.3z"/></g></symbol><symbol id="app" viewBox="0 0 40 40"><path fill="#97BA33" d="M20.3 0C9.5 0 .7 8.8.7 19.7c0 3.4.9 6.8 2.6 9.8L0 39.1c-.1.2 0 .5.1.7.2.1.4.2.6.2h.2l10.6-2.8c2.8 1.4 5.8 2.1 8.9 2.1 10.8 0 19.7-8.8 19.7-19.7C40 8.8 31.2 0 20.3 0"/><path fill="#FFF" d="M24.9 7.8h-9.1c-1.4 0-2.5 1.1-2.5 2.5v18c0 1.4 1.1 2.5 2.5 2.5h9.1c1.4 0 2.5-1.1 2.5-2.5v-18c0-1.4-1.1-2.5-2.5-2.5m-4.5 22.1c-.8 0-1.4-.6-1.4-1.4 0-.8.6-1.4 1.4-1.4.8 0 1.4.6 1.4 1.4 0 .8-.6 1.4-1.4 1.4m4.7-4.7c0 .4-.4.8-.8.8h-7.9c-.4 0-.8-.3-.8-.8v-15c0-.4.4-.8.8-.8h7.9c.4 0 .8.3.8.8v15z"/></symbol><symbol id="bg"><g clip-path="url(#clip0)"><path fill="#fff" d="M0 0h683v100H0z"/><g filter="url(#filter0_d)"><path d="M0 100V0h663c-45 26.5-50.5 29.5-104 50.5S477 78 425 100H0z" fill="url(#paint0_linear)"/></g></g></symbol><symbol id="chat" viewBox="0 0 512 512"><path fill="111111" d="M483.869 47.198H28.131C12.619 47.198 0 59.818 0 75.33v276.178c0 15.512 12.619 28.131 28.131 28.132h297.756c3.78 0 7.421 1.135 10.53 3.284l115.881 80.059a10.267 10.267 0 0010.6.643 10.26 10.26 0 005.493-9.086v-69.943a4.964 4.964 0 014.959-4.959h10.517c15.512 0 28.131-12.619 28.131-28.131V75.33c.002-15.512-12.617-28.132-28.129-28.132zm7.61 304.309c0 4.197-3.414 7.61-7.61 7.61h-10.517c-14.05 0-25.48 11.43-25.48 25.48v50.383l-99.789-68.939a38.867 38.867 0 00-22.196-6.923H28.131c-4.197 0-7.61-3.414-7.61-7.61V75.33c0-4.197 3.414-7.61 7.61-7.61h455.737c4.197 0 7.61 3.414 7.61 7.61v276.177z"/><path fill="111111" d="M352.449 139.543h-239.07c-5.666 0-10.261 4.595-10.261 10.26 0 5.666 4.595 10.261 10.261 10.261h239.07c5.666 0 10.26-4.595 10.26-10.261 0-5.665-4.594-10.26-10.26-10.26zm46.172 63.615H113.379c-5.666 0-10.261 4.595-10.261 10.26 0 5.666 4.595 10.261 10.261 10.261h285.242c5.666 0 10.26-4.595 10.26-10.261.001-5.665-4.594-10.26-10.26-10.26zm0 64.642H113.379c-5.666 0-10.261 4.595-10.261 10.26 0 5.666 4.595 10.26 10.261 10.26h285.242c5.666 0 10.26-4.595 10.26-10.26.001-5.666-4.594-10.26-10.26-10.26z"/></symbol><symbol id="chatbots" viewBox="0 0 40 40"><path fill="#6AACCE" d="M40 20c0 11-9 20-20 20S0 31 0 20 9 0 20 0s20 9 20 20"/><path fill="#FFF" d="M30.3 17.3h-.8v-1.1c0-1.7-1.4-3.1-3.2-3.1h-5.2v-2.6c.7-.4 1.1-1.1 1.1-2 0-1.3-1-2.3-2.3-2.3-1.3 0-2.3 1-2.3 2.3 0 .8.5 1.6 1.1 2V13h-5.2c-1.7 0-3.1 1.4-3.1 3.1v1.1h-.7c-1 0-1.8.8-1.8 1.8v3.8c0 1 .8 1.8 1.8 1.8h.8v1.1c0 1.7 1.4 3.1 3.1 3.1h1.5v1.7c0 1 .8 1.8 1.8 1.8H23c1 0 1.8-.8 1.8-1.8v-1.7h1.5c1.7 0 3.2-1.4 3.2-3.1v-1.1h.8c1 0 1.8-.8 1.8-1.8V19c-.1-.9-.9-1.7-1.8-1.7m-17.2 1.2c0-1.2.9-2.1 2.1-2.1 1.2 0 2.1.9 2.1 2.1 0 1.2-.9 2.1-2.1 2.1-1.2 0-2.1-1-2.1-2.1m9.7 7.6h-5.7c-.9 0-1.7-.8-1.7-1.7 0-.9.8-1.7 1.7-1.7h5.7c.9 0 1.7.8 1.7 1.7.1.9-.7 1.7-1.7 1.7m2-5.5c-1.2 0-2.1-.9-2.1-2.1 0-1.2.9-2.1 2.1-2.1 1.2 0 2.1.9 2.1 2.1 0 1.1-.9 2.1-2.1 2.1"/></symbol><symbol id="cross"><path fill="#fff" d="M0 0h34v34H0z"/><path fill="#fff" d="M0 0h34v34H0z"/><path d="M2 2l30 30M2 32L32 2" stroke="#3FD6BC" stroke-width="4"/></symbol><symbol id="email" viewBox="0 0 40 40"><path fill="#7296CD" d="M20 0c11 0 20 9 20 20s-9 20-20 20S0 31 0 20 9 0 20 0"/><path fill="#FFF" d="M6.9 12.2v15.6l7.6-7.8zm26.2 0v15.6L25.6 20zm-25.6-.7h25l-9.8 10.2c-.7.8-1.7 1.2-2.7 1.2-1 0-2-.4-2.7-1.1L7.5 11.5z"/><path fill="#FFF" d="M23.2 22.3c-.8.9-2 1.4-3.2 1.4-1.2 0-2.4-.5-3.2-1.4l-1.7-1.7-7.6 7.9h25l-7.6-7.9-1.7 1.7z"/></symbol><symbol id="facebook"><path fill="#adb0c2" d="M73.099 15.973l-9.058.004c-7.102 0-8.477 3.375-8.477 8.328v10.921h16.938l-.006 17.106H55.564v43.895H37.897V52.332h-14.77V35.226h14.77V22.612C37.897 7.972 46.84 0 59.9 0l13.2.021-.001 15.952z"/></symbol><symbol id="feedback" viewBox="0 0 40 40"><path fill="#DAB81A" d="M20 0C9 0 0 9 0 20s9 20 20 20 20-9 20-20S31 0 20 0zm-7.5 13.7H24l-.1-.1c-.6-.6-.6-1.5 0-2.1.6-.6 1.5-.6 2 0l2.7 2.7v.1c.1.1.2.3.3.4.1.2.1.4.1.6v.4c-.1.2-.2.4-.4.6L25.9 19c-.3.3-.6.4-1 .4s-.7-.2-1-.4c-.6-.6-.5-1.5 0-2.1l.1-.2H12.5c-.8 0-1.4-.7-1.4-1.5-.1-.9.6-1.5 1.4-1.5zm15.1 12.6H16l.1.2c.6.6.6 1.5 0 2.1-.3.3-.7.4-1 .4-.4 0-.7-.1-1-.4l-2.7-2.7h-.1c-.2-.2-.3-.4-.4-.6 0-.1-.1-.2-.1-.4s.1-.3.1-.5c.1-.2.2-.4.4-.5l2.7-2.7c.6-.6 1.5-.6 2 0 .6.6.5 1.5 0 2.1v.1h11.5c.8 0 1.4.7 1.4 1.5.1.7-.5 1.4-1.3 1.4z"/></symbol><symbol id="logo" viewBox="0 0 150.66667 36.502666"><g clip-path="url(#a)" transform="matrix(1.33333 0 0 -1.33333 0 36.503)"><path d="M55.519 9.569c-.115 2.229-1.96 4.226-4.303 4.226-2.574 0-4.573-1.845-4.842-4.226zm-4.303 6.569c4.034 0 6.954-2.997 6.954-7.03 0-.27-.038-.77-.077-1.04a.706.706 0 00-.691-.651H46.336c.154-2.575 2.42-4.995 5.149-4.995 1.614 0 2.92.614 3.804 1.153.538.307.768.498 1.076.076.23-.307.423-.576.653-.883.269-.346.422-.577-.154-1C55.942 1.038 53.868 0 51.216 0c-4.65 0-7.532 3.65-7.532 8.068 0 4.342 2.883 8.069 7.532 8.069M69.273 2.421c2.805 0 4.572 2.651 4.572 5.647 0 3.075-1.69 5.496-5.033 5.496-2.113 0-3.726-.923-3.726-.923V4.957s1.421-2.536 4.187-2.536m-6.877 24.131c0 .383.346.728.73.728h1.191a.754.754 0 00.73-.728V15.14s1.576 1 4.111 1c4.61 0 7.377-3.535 7.377-8.03 0-4.42-3.074-8.11-6.992-8.11-2.882 0-4.727 2.037-4.727 2.037L64.586 1c-.077-.346-.307-.614-.654-.614h-.806a.756.756 0 00-.73.73zm18.482-11.528c0 .385.346.73.729.73h1.192c.385 0 .73-.345.73-.73V1.116a.755.755 0 00-.73-.731h-1.192a.756.756 0 00-.73.73zm-.538 9.646c0 1.037.807 1.843 1.806 1.843a1.82 1.82 0 001.844-1.843c0-1-.806-1.807-1.844-1.807-1 0-1.806.807-1.806 1.807m8.645-9.646c0 .385.347.73.73.73h.73c.347 0 .538-.154.615-.46l.346-1.192s1.806 2.036 4.995 2.036c2.267 0 3.92-.884 4.918-2.497.191.154 2.651 2.497 5.726 2.497 4.457 0 5.955-2.92 5.955-6.915V1.116a.756.756 0 00-.73-.731h-1.229a.756.756 0 00-.73.73v8.108c0 2.88-1.23 4.34-3.459 4.34-2.498 0-4.15-1.65-4.688-2.15.115-.655.192-1.383.192-2.19V1.116a.756.756 0 00-.729-.731h-1.23a.755.755 0 00-.73.73v8.108c0 2.92-1.307 4.34-3.65 4.34-2.728 0-4.38-2.19-4.38-2.19V1.117a.755.755 0 00-.73-.731h-1.192a.757.757 0 00-.73.73z" fill="#393f6b"/></g><path fill="url(#b)" d="M.105 26.355A.385.385 0 010 26.121v-.028l.004-.034.064-.248c.577-2.262 1.377-5.181 2.53-8.372.484-1.322 1.153-3.069 2.035-4.829.449-.902.896-1.695 1.364-2.426.589-.915 1.166-1.634 1.817-2.263.4-.383.794-.689 1.2-.933.507-.297.991-.479 1.47-.555a3.42 3.42 0 011.626.12c.493.157.988.428 1.477.814.977.781 1.656 1.768 2.139 2.54.506.817.964 1.72 1.48 2.925.391.919.769 1.926 1.155 3.076l.496 1.414c.168.467.362.908.532 1.348.886 2.304 2.067 2.402 3.011.831-1.817 3.093-4.845 2.666-4.845 2.666a17.427 17.427 0 01-.761-1.619 30.322 30.322 0 01-.603-1.604l-.503-1.583a38.43 38.43 0 00-.945-2.797 21.033 21.033 0 00-1.13-2.481c-.306-.56-.789-1.332-1.356-1.845-.515-.453-.952-.635-1.48-.63-.504.01-1.114.288-1.712.786-.475.384-.971.919-1.555 1.678a21.795 21.795 0 00-1.366 2.034 49.11 49.11 0 00-2.266 4.331c-1.388 2.986-2.295 5.561-3.111 7.73H.766a.412.412 0 01-.235.259.348.348 0 01-.138.03c-.11 0-.217-.023-.288-.101" transform="matrix(1.33333 0 0 -1.33333 0 36.503)"/><g clip-path="url(#c)" transform="matrix(1.33333 0 0 -1.33333 0 36.503)"><path d="M40.962 27.377c-.442 0-.813-.309-.947-.733l-.046-.226-.486-2.396c-.155-.792-.337-1.64-.52-2.479l-.09-.42c-.43-1.972-.896-3.972-1.39-5.948a81.978 81.978 0 00-1.702-5.93 29.266 29.266 0 00-1.07-2.777 9.72 9.72 0 00-.622-1.207c-.225-.358-.975-1.936-2.097-.167-.196.31-.424.685-.67 1.161-.89 1.77-1.693 3.91-2.377 5.776l-.504 1.388a130.97 130.97 0 01-1.654 4.394l-.18.451c-.384.93-.857 2.031-1.446 3.14a14.312 14.312 0 01-.948 1.563c-.335.467-.75 1.011-1.385 1.488-.344.254-.683.43-1.034.534-.396.12-.847.138-1.236.051a3.059 3.059 0 01-1.111-.504 5.002 5.002 0 01-.816-.756 8.978 8.978 0 01-1.076-1.613s3.028.427 4.845-2.666a5.7 5.7 0 00.221-.403c.365-.742.778-1.603 1.238-2.744a167.39 167.39 0 001.615-4.26 355.5 355.5 0 01.675-1.824c.348-.935.765-2.039 1.215-3.138.353-.862.837-1.999 1.448-3.138.229-.427.546-.99.943-1.559.327-.463.744-1.005 1.346-1.494.324-.254.648-.44.985-.564.39-.145.816-.196 1.206-.143.485.06.88.261 1.127.418.314.2.607.446.85.711.522.56.862 1.13 1.14 1.622.279.503.534 1.036.779 1.622.402.965.765 1.993 1.143 3.234.666 2.194 1.153 4.353 1.58 6.36.386 1.807.752 3.77 1.155 6.177l.082.495c.139.841.275 1.66.399 2.52l.364 2.574.05.346c0 .006 0 .013.002.02-.016.58-.456 1.044-1.001 1.044" fill="#393f6b"/></g></symbol><symbol id="logo_gray" viewBox="0 0 82 20"><path fill="#fff" d="M36.9 8.2c2.9 0 5.1 2.2 5.1 5.1 0 .2 0 .6-.1.8 0 .3-.3.5-.5.5h-8.1c.1 1.9 1.8 3.6 3.8 3.6 1.2 0 2.1-.4 2.8-.8.4-.2.6-.4.8-.1.2.2.3.4.5.6.2.3.3.4-.1.7-.7.6-2.2 1.4-4.1 1.4-3.4 0-5.5-2.7-5.5-5.9-.1-3.2 2.1-5.9 5.4-5.9zm3.2 4.8c-.1-1.6-1.4-3.1-3.1-3.1-1.9 0-3.3 1.3-3.5 3.1h6.6zM45 .6c0-.3.3-.5.5-.5h.9c.3 0 .5.3.5.5v8.3s1.2-.7 3-.7c3.4 0 5.4 2.6 5.4 5.9 0 3.2-2.2 5.9-5.1 5.9-2.1 0-3.4-1.5-3.4-1.5l-.2.8c-.1.3-.2.4-.5.4h-.6c-.3 0-.5-.3-.5-.5V.6zm5 17.6c2.1 0 3.3-1.9 3.3-4.1 0-2.2-1.2-4-3.7-4-1.5 0-2.7.7-2.7.7v5.6c.1 0 1.1 1.8 3.1 1.8zm8-13.5c0-.8.6-1.3 1.3-1.3.8 0 1.3.6 1.3 1.3 0 .7-.6 1.3-1.3 1.3-.7 0-1.3-.6-1.3-1.3zm.4 4.3c0-.3.3-.5.5-.5h.9c.3 0 .5.3.5.5v10.2c0 .3-.3.5-.5.5H59c-.3 0-.5-.3-.5-.5V9zm5.9 0c0-.3.3-.5.5-.5h.5c.3 0 .4.1.4.3l.3.9s1.3-1.5 3.6-1.5c1.7 0 2.9.6 3.6 1.8.1-.1 1.9-1.8 4.2-1.8 3.3 0 4.3 2.1 4.3 5v5.9c0 .3-.3.5-.5.5h-.9c-.3 0-.5-.3-.5-.5v-5.9c0-2.1-.9-3.2-2.5-3.2-1.8 0-3 1.2-3.4 1.6.1.5.1 1 .1 1.6v5.9c0 .3-.3.5-.5.5h-.9c-.3 0-.5-.3-.5-.5v-5.9c0-2.1-1-3.2-2.7-3.2-2 0-3.2 1.6-3.2 1.6v7.5c0 .3-.3.5-.5.5h-.9c-.3 0-.5-.3-.5-.5V9zM29.9 0c-.3 0-.6.2-.7.5v.2l-.4 1.8c-.1.6-.2 1.2-.4 1.8l-.1.3c-.3 1.4-.7 2.9-1 4.3-.4 1.5-.8 3-1.2 4.3-.3.8-.5 1.5-.8 2-.1.3-.3.6-.5.9-.2.3-.7 1.4-1.5.1-.1-.2-.3-.5-.5-.8-.7-1.3-1.2-2.9-1.7-4.2l-.4-1c-.3-1.1-.7-2.1-1.1-3.2 0-.1-.1-.2-.1-.3-.3-.7-.6-1.5-1.1-2.3-.2-.4-.5-.8-.7-1.1-.2-.3-.5-.7-1-1.1-.3-.2-.5-.3-.8-.4-.3-.1-.6-.1-.9 0-.3.1-.5.2-.8.4l-.6.6c-.4.2-.6.6-.8 1 0 0 2.2-.3 3.5 2v.1c0 .1.1.1.1.2.3.5.6 1.2.9 2 .4 1 .8 2 1.2 3.1.2.4.3.9.5 1.3.3.7.6 1.5.9 2.3.3.6.6 1.5 1.1 2.3.2.3.4.7.7 1.1.2.3.5.7 1 1.1.2.2.5.3.7.4.3.1.6.1.9.1.4 0 .6-.2.8-.3.2-.1.4-.3.6-.5.4-.4.6-.8.8-1.2l.6-1.2c.3-.7.6-1.5.8-2.4.5-1.6.8-3.2 1.2-4.6.3-1.3.5-2.8.8-4.5l.1-.4.3-1.8.3-1.9V.7c0-.4-.3-.7-.7-.7z"/><linearGradient id="a" gradientUnits="userSpaceOnUse" x1="-2" y1="49.991" x2="14.369" y2="49.991" gradientTransform="matrix(1 0 0 -1 2 58)"><stop offset="0" stop-color="#a2a5ba"/><stop offset="1" stop-color="#4d517a"/></linearGradient><path d="M12.8 3.8L12.2 5c-.2.4-.3.8-.4 1.2l-.4 1.2c-.2.8-.5 1.4-.7 2-.3.7-.5 1.3-.8 1.8-.2.4-.6 1-1 1.4-.3.3-.7.4-1 .4-.4 0-.8-.2-1.3-.6-.3-.3-.7-.7-1.1-1.2-.3-.4-.7-.9-1-1.5-.6-1-1.1-2-1.7-3.2C1.8 4.3 1.1 2.4.5.9.5.8.4.7.3.7H.2C.1.7 0 .7 0 .8v.3c.4 1.7 1 3.8 1.9 6.1.4 1 .8 2.2 1.5 3.5.3.7.7 1.2 1 1.8.4.7.9 1.2 1.3 1.7.3.3.6.5.9.7.4.2.7.4 1.1.4.4.1.8 0 1.2-.1.4-.1.7-.3 1.1-.6.7-.6 1.2-1.3 1.6-1.9.4-.6.7-1.3 1.1-2.1.3-.7.6-1.4.8-2.3l.4-1c.1-.3.3-.7.4-1 .6-1.7 1.5-1.8 2.2-.6-1.5-2.4-3.7-1.9-3.7-1.9z" fill="url(#a)"/></symbol><symbol id="menu-mobile" viewBox="925.5 31 33.5 25"><g id="Group_6" data-name="Group 6" transform="translate(-641 -43)"><g id="Group_5" data-name="Group 5"><g id="Group_3" data-name="Group 3" transform="translate(8.5)"><path id="Line_2" data-name="Line 2" class="cls-1" transform="translate(1558 75.5)" d="M0 0h33.5"/><path id="Line_3" data-name="Line 3" class="cls-1" transform="translate(1558 86.5)" d="M0 0h33.5"/><path id="Line_4" data-name="Line 4" class="cls-1" transform="translate(1558 97.5)" d="M0 0h33.5"/></g></g></g></symbol><symbol id="msn" viewBox="0 0 40 40"><path fill="#3DD3A1" d="M20.3 0C9.5 0 .7 8.8.7 19.7c0 3.4.9 6.8 2.6 9.8L0 39.1c-.1.2 0 .5.1.7.2.1.4.2.6.2h.2l10.6-2.8c2.8 1.4 5.8 2.1 8.9 2.1 10.8 0 19.7-8.8 19.7-19.7C40 8.8 31.2 0 20.3 0"/><path d="M13.6 19.7c0 1.4-1.2 2.6-2.6 2.6-1.4 0-2.6-1.2-2.6-2.6 0-1.4 1.2-2.6 2.6-2.6 1.4-.1 2.6 1.1 2.6 2.6m9.3 0c0 1.4-1.2 2.6-2.6 2.6-1.4 0-2.6-1.2-2.6-2.6 0-1.4 1.2-2.6 2.6-2.6 1.5-.1 2.6 1.1 2.6 2.6m9.4 0c0 1.4-1.2 2.6-2.6 2.6-1.4 0-2.6-1.2-2.6-2.6 0-1.4 1.2-2.6 2.6-2.6 1.5-.1 2.6 1.1 2.6 2.6" fill="#FFF"/></symbol><symbol id="phone-call" viewBox="0 0 512 512"><path fill="#68cdbc" d="M436.992 74.953c-99.989-99.959-262.08-99.935-362.039.055s-99.935 262.08.055 362.039 262.08 99.935 362.039-.055a256 256 0 00-.055-362.039zm-49.289 281.652l-.034.034v-.085l-12.971 12.885a68.267 68.267 0 01-64.427 18.432 226.834 226.834 0 01-65.877-29.525 304.371 304.371 0 01-51.968-41.899 306.71 306.71 0 01-38.827-47.104 238.907 238.907 0 01-29.184-59.051 68.265 68.265 0 0117.067-69.717l15.189-15.189c4.223-4.242 11.085-4.257 15.326-.034l.034.034 47.957 47.957c4.242 4.223 4.257 11.085.034 15.326l-.034.034-28.16 28.16c-8.08 7.992-9.096 20.692-2.389 29.867a329.334 329.334 0 0033.707 39.339 327.314 327.314 0 0044.373 37.291c9.167 6.394 21.595 5.316 29.525-2.56l27.221-27.648c4.223-4.242 11.085-4.257 15.326-.034l.034.034 48.043 48.128c4.243 4.222 4.258 11.083.035 15.325z"/></symbol><symbol id="skype" viewBox="-21 -22 682.665 682"><path fill="#adb0c2" d="M617.348 372.777c-.207 1.125-.559-1.015 0 0 3.3-17.984 5.035-36.386 5.035-54.785 0-40.797-7.985-80.37-23.766-117.633-15.226-35.988-37.008-68.308-64.777-96.058-27.727-27.754-60.07-49.531-96.043-64.754-37.246-15.762-76.824-23.75-117.617-23.75-19.227 0-38.485 1.805-57.227 5.406-.039.008-.14.02-.14.02C237.098 7.55 208.183.25 178.91.25c-47.789 0-92.719 18.61-126.508 52.41C18.617 86.45 0 131.383 0 179.168c0 30.418 7.828 60.32 22.508 86.738-2.977 17.121-4.551 34.617-4.551 52.086 0 40.805 7.988 80.375 23.77 117.64 15.203 36.005 36.992 68.302 64.738 96.056 27.77 27.75 60.066 49.562 96.078 64.746 37.25 15.793 76.84 23.785 117.633 23.785 17.758 0 35.554-1.621 52.93-4.703a178.73 178.73 0 0088.015 23.191c47.777 0 92.688-18.574 126.48-52.39C621.399 552.546 640 507.604 640 459.82c0-30.52-7.867-60.52-22.652-87.043zM321.383 503.074c-107.363 0-155.399-52.781-155.399-92.344 0-20.285 14.98-34.511 35.625-34.511 45.95 0 34.051 65.972 119.774 65.972 43.887 0 68.117-23.828 68.117-48.21 0-14.668-7.234-30.926-36.133-38.047l-95.492-23.84c-76.91-19.285-90.863-60.864-90.863-99.946 0-81.144 76.402-111.609 148.148-111.609 66.094 0 144.004 36.527 144.004 85.207 0 20.86-18.062 32.988-38.7 32.988-39.21 0-32-54.273-110.984-54.273-39.19 0-60.902 17.75-60.902 43.144 0 25.352 30.957 33.45 57.832 39.57l70.684 15.692c77.426 17.25 97.054 62.453 97.054 105.031.008 65.938-50.609 115.176-152.765 115.176zm0 0"/></symbol><symbol id="sn" viewBox="0 0 40 40"><path fill="#3B4269" d="M20 0C9 0 0 9 0 20s9 20 20 20 20-9 20-20S31 0 20 0zm-2.2 20c0 .4-.1.8-.2 1.2l5.6 2.7c.6-.7 1.6-1.1 2.6-1.1 1.9 0 3.5 1.6 3.5 3.5s-1.6 3.5-3.5 3.5-3.5-1.6-3.5-3.5v-.5l-5.9-2.9c-.6.4-1.3.7-2.1.7-1.9 0-3.5-1.6-3.5-3.5s1.6-3.5 3.5-3.5c.8 0 1.5.3 2.1.7l5.9-2.9v-.5c0-1.9 1.6-3.5 3.5-3.5s3.5 1.6 3.5 3.5-1.6 3.5-3.5 3.5c-1 0-1.9-.4-2.6-1.1L17.6 19c.1.2.2.6.2 1z"/></symbol><symbol id="step_01" viewBox="0 0 74 74"><circle fill="#2CD3B8" cx="37" cy="37" r="37"/><path fill="#FFF" d="M41.8 37.5c3.5 0 6.4-2.8 6.4-6.3 0-3.4-2.9-6.2-6.4-6.2s-6.4 2.8-6.4 6.2c0 3.5 2.9 6.3 6.4 6.3zm-14.3-3.1v-4.7h-3.2v4.7h-4.8v3.1h4.8v4.7h3.2v-4.7h4.8v-3.1h-4.8zm14.3 6.2c-4.3 0-12.7 2-12.7 6.2V50h25.5v-3.1c-.1-4.2-8.5-6.3-12.8-6.3z"/></symbol><symbol id="step_02" viewBox="0 0 74 74"><circle fill="#2CD3B8" cx="37" cy="37" r="37"/><path fill="#FFF" d="M47.1 25.5L32.6 39.8 27 34.3l-4.4 4.4 10.1 9.9L51.6 30l-4.5-4.5z"/></symbol><symbol id="step_03" viewBox="0 0 74 74"><style/><circle fill="#2CD3B8" cx="37" cy="37" r="37" id="&#x421;&#x43B;&#x43E;&#x439;_1"/><path fill="#FFF" d="M54.9 35c-.1-.5-.6-.9-1.2-.9-1.6 0-3.1-1-3.7-2.5-.6-1.5-.2-3.3 1-4.5.4-.4.4-.9.1-1.4-.8-1.1-1.8-2-2.9-2.9-.4-.3-1-.3-1.4.1-1.1 1.2-3 1.6-4.5 1-1.5-.7-2.5-2.2-2.4-3.9 0-.5-.4-1-.9-1.1-1.3-.2-2.7-.2-4 0-.5.1-.9.5-.9 1 .1 1.7-.9 3.2-2.5 3.8-1.5.6-3.4.2-4.5-1-.4-.4-.9-.4-1.4-.1-1.1.8-2.1 1.8-2.9 2.9-.3.4-.3 1 .1 1.4 1.3 1.1 1.7 2.9 1 4.5-.6 1.5-2.2 2.4-3.9 2.4-.6 0-1 .4-1 .9-.2 1.4-.2 2.7 0 4.1.1.5.7.9 1.2.9 1.6 0 3.1.9 3.7 2.5.6 1.5.2 3.3-1 4.5-.4.4-.4.9-.1 1.4.8 1.1 1.8 2 2.8 2.9.4.3 1 .3 1.4-.1 1.1-1.2 3-1.6 4.5-1 1.6.6 2.5 2.2 2.4 3.9 0 .5.4 1 .9 1.1.8.1 1.5.1 2.2.1.7 0 1.3 0 2-.1.5-.1.9-.5.9-1-.1-1.7.9-3.2 2.5-3.8 1.5-.6 3.4-.2 4.5 1 .4.4.9.4 1.4.1 1.1-.8 2.1-1.8 2.9-2.9.3-.4.3-1-.1-1.4-1.3-1.1-1.7-2.9-1-4.5.4-1.4 1.9-2.4 3.5-2.4h.2c.5 0 1-.4 1.1-.9.1-1.4.1-2.7 0-4.1zM37 47.4c-5.7 0-10.4-4.6-10.4-10.4S31.3 26.6 37 26.6 47.4 31.3 47.4 37c0 1.9-.5 3.8-1.5 5.3l-4.5-4.5c.3-.8.5-1.6.5-2.5 0-1.7-.7-3.3-1.9-4.5-1.2-1.2-2.8-1.9-4.5-1.9-.6 0-1.1.1-1.7.2-.2.1-.4.3-.5.5-.1.2 0 .5.2.7 0 0 2.2 2.3 3 3 .1.1.1.3.1.3-.1.8-.2 1.8-.3 2.2v.1c-.4.1-1.4.3-2.2.3-.1 0-.2 0-.3-.1l-2.9-2.9c-.2-.2-.4-.2-.5-.2-.3 0-.6.2-.7.5-.6 2.2 0 4.6 1.6 6.2 1.2 1.2 2.8 1.9 4.5 1.9.9 0 1.7-.2 2.5-.5l4.6 4.6c-1.9 1.1-3.8 1.7-5.9 1.7z" id="&#x421;&#x43B;&#x43E;&#x439;_4"/></symbol><symbol id="step_04" viewBox="0 0 74 74"><circle fill="#2CD3B8" cx="37" cy="37" r="37"/><path fill-rule="evenodd" clip-rule="evenodd" fill="#FFF" d="M57 26.3l-.3 2.5c-.1.8-.2 1.6-.4 2.4l-.1.5c-.4 2.3-.7 4.2-1.1 5.9-.4 1.9-.9 4-1.5 6.1-.4 1.2-.7 2.2-1.1 3.1-.2.6-.5 1.1-.7 1.6-.3.5-.6 1-1.1 1.6-.2.3-.5.5-.8.7-.2.2-.6.3-1.1.4-.4.1-.8 0-1.1-.1-.3-.1-.6-.3-.9-.5-.6-.5-1-1-1.3-1.4-.4-.5-.7-1.1-.9-1.5-.6-1.1-1-2.2-1.4-3-.4-1-.8-2.1-1.2-3l-.6-1.8c-.5-1.4-1-2.8-1.5-4.1-.4-1.1-.8-1.9-1.2-2.6 0-.1-.1-.2-.2-.3 0 0 0-.1-.1-.1 0 0 0-.1-.1-.1-.9-1.3-2-1.2-2.8.9-.2.4-.3.8-.5 1.3l-.5 1.2c-.4 1.1-.7 2.1-1.1 3-.5 1.2-.9 2-1.4 2.8-.5.7-1.1 1.7-2 2.4-.5.4-.9.6-1.4.8-.5.2-1 .2-1.6.1-.5-.1-.9-.3-1.4-.5-.4-.2-.8-.5-1.1-.9-.6-.6-1.2-1.3-1.7-2.2-.5-.7-.9-1.5-1.3-2.3-.8-1.7-1.5-3.4-1.9-4.6-1.1-3.1-1.9-5.9-2.4-8 0-.1 0-.2-.1-.2 0-.1 0-.2.1-.3.1-.1.2-.1.3-.1h.1c.1 0 .2.1.2.3.8 2.1 1.6 4.5 3 7.4.7 1.5 1.4 2.9 2.2 4.2.4.7.9 1.4 1.3 2 .6.7 1 1.2 1.5 1.6.6.5 1.1.7 1.6.8.5 0 .9-.2 1.4-.6.5-.5 1-1.2 1.3-1.8.4-.7.7-1.5 1.1-2.4.3-.8.6-1.7.9-2.7l.5-1.5.6-1.5c.2-.6.5-1.1.7-1.6.2-.5.6-1 1-1.5.2-.3.5-.5.8-.7.3-.3.7-.4 1.1-.5.4-.1.8-.1 1.2 0 .3.1.7.3 1 .5.6.5 1 1 1.3 1.4.3.4.6.9.9 1.5.6 1.1 1 2.1 1.4 3 .1.1.1.3.2.4.6 1.4 1.1 2.8 1.6 4.2l.5 1.3c.7 1.8 1.4 3.8 2.3 5.5.2.5.5.8.6 1.1 1.1 1.7 1.8.2 2-.2.2-.3.4-.7.6-1.2.3-.8.7-1.6 1-2.7.6-1.7 1.1-3.7 1.6-5.7.5-1.9.9-3.8 1.3-5.7l.1-.4c.2-.8.4-1.6.5-2.4l.5-2.3v-.2c.1-.4.5-.7.9-.7.5 0 .9.4.9.9l-.2.5z"/></symbol><symbol id="step_05" viewBox="0 0 74 74"><circle fill="#2CD3B8" cx="37" cy="37" r="37"/><path fill="#FFF" d="M51.5 34h-.6v9.4h.6c.9 0 1.6-.7 1.6-1.6v-6.3c-.1-.8-.8-1.5-1.6-1.5zM21 35.6v6.1c0 .9.7 1.7 1.6 1.7h.6V34h-.6c-.9 0-1.6.7-1.6 1.6zm28.4-.3c0-.7-.1-1.4-.2-2.1 0-.2-.1-.5-.2-.7v-1.8c0-6.8-5.4-12.3-12-12.3S25 24 25 30.8V32c-.1.2-.1.3-.2.5-.2.9-.4 1.9-.4 2.8v11.6c0 .5.4.8.8.8h2.5c.8 4.4 4.7 7.8 9.3 7.8 3.6 0 6.8-2.1 8.4-5.2 2.7-.2 4.9-2.5 4.9-5.3h-.9v-9.7zm-5.5 12.6H38c-.7 0-1.2.6-1.2 1.2 0 .7.5 1.2 1.2 1.2h4.6C41.3 52 39.3 53 37.1 53c-3.9 0-7-3.2-7-7.2V38c.9-.6 2.5-1.7 3.6-3.2 1.7 1.4 5.1 3.5 10.5 3.7v7.3l-.3 2.1zm-5.1-23.5h-3.6c-2.7 0-5.2 1-7 2.7C29.5 23.5 33 21 37 21c4.1 0 7.7 2.7 9 6.4-1.8-1.8-4.4-3-7.2-3zm-4.2 15.9h-1.9c-.7 0-1.2.6-1.2 1.2 0 .7.5 1.2 1.2 1.2h1.9c.7 0 1.2-.6 1.2-1.2s-.6-1.2-1.2-1.2zm6.8 0h-1.9c-.7 0-1.2.6-1.2 1.2 0 .7.5 1.2 1.2 1.2h1.9c.7 0 1.2-.6 1.2-1.2s-.6-1.2-1.2-1.2z"/></symbol><symbol id="step_06" viewBox="0 0 74 74"><circle fill="#2CD3B8" cx="37" cy="37" r="37"/><path fill="#FFF" d="M41.6 49h-3.4v-3h-2.4v3h-3.4c-.7 0-1.2.6-1.2 1.2 0 .7.5 1.2 1.2 1.2h9.2c.7 0 1.2-.6 1.2-1.2s-.5-1.2-1.2-1.2zM21 42v1.5c0 .5.4 1 1 1h30c.5 0 1-.4 1-1V42H21zm16-15.3c2.6 0 5 .7 7.1 2l.8-1.1c.3-.4.8-.4 1.1-.2.4.3.4.8.2 1.1l-.8 1.1c3.2 2.5 5.2 6.3 5.3 10.7H53V23.5c0-.5-.4-1-1-1H22c-.5 0-1 .4-1 1v16.9h2.3c.1-7.6 6.2-13.7 13.7-13.7zm7 13.1c-.1-.1-.1-.2-.1-.3-.3-1.8-1.2-3.3-2.5-4.3L39 38.5c.4.3.7.8.9 1.3H44zm-7-2h.5l2.6-3.5c-.9-.5-2-.7-3.1-.7-2 0-3.8.8-5.1 2.2 0 .1-.1.1-.1.2-.8 1-1.4 2.2-1.6 3.5 0 .1-.1.2-.1.3h4.1c.3-1.2 1.5-2 2.8-2zm12.1 2c-.2-3.6-2-6.7-4.6-8.8l-2.1 2.9.2.2c1.5 1.3 2.6 3.2 2.9 5.2 0 .2 0 .4-.1.6h3.7zm-21.9-6.4c-1.3 1.8-2.2 4-2.3 6.4h3.7c-.1-.2-.2-.4-.1-.6.2-1.3.8-2.6 1.6-3.7l-2.9-2.1zm4.2.6c1.4-1.2 3-1.9 4.8-2v-3.6c-3.1.2-5.9 1.6-7.9 3.7l2.9 2.1.2-.2zm11.7-3.9c-1.6-.9-3.4-1.5-5.3-1.6V32c1.1.1 2.2.4 3.2 1l2.1-2.9z"/></symbol><symbol id="twitter"><path fill="#adb0c2" d="M97.523 18.526a.482.482 0 00-.568-.131 39.055 39.055 0 01-9.153 2.776 20.299 20.299 0 007.143-10.035.484.484 0 00-.709-.565 39.147 39.147 0 01-12.18 4.701 20.408 20.408 0 00-14.644-6.219c-11.204 0-20.318 9.114-20.318 20.317 0 1.355.131 2.697.391 4-15.518-.958-30.028-8.408-39.894-20.509a.484.484 0 00-.795.062 20.303 20.303 0 00-2.751 10.215 20.3 20.3 0 007.649 15.896 19.42 19.42 0 01-7.089-2.292.483.483 0 00-.721.413l-.002.26c0 8.946 5.895 16.801 14.282 19.409a19.514 19.514 0 01-6.754-.098.486.486 0 00-.553.623A20.314 20.314 0 0028.494 71.39c-6.785 4.971-14.805 7.59-23.279 7.59-1.561 0-3.133-.093-4.673-.274a.492.492 0 00-.514.317.485.485 0 00.195.572 56.693 56.693 0 0030.664 8.988c35.625 0 56.913-28.938 56.913-56.914 0-.779-.015-1.554-.046-2.327a40.519 40.519 0 009.802-10.235.486.486 0 00-.033-.581z"/></symbol><symbol id="vk"><path fill="#adb0c2" d="M92.499 65.178c-2.873-3.446-6.254-6.387-9.453-9.51-2.886-2.815-3.068-4.448-.748-7.697 2.532-3.546 5.255-6.956 7.81-10.486 2.385-3.299 4.823-6.589 6.078-10.539.796-2.513.092-3.623-2.485-4.063-.444-.077-.903-.081-1.355-.081l-15.289-.018c-1.883-.028-2.924.793-3.59 2.462-.899 2.256-1.826 4.51-2.897 6.687-2.43 4.936-5.144 9.707-8.949 13.747-.839.891-1.767 2.017-3.169 1.553-1.754-.64-2.271-3.53-2.242-4.507l-.015-17.647c-.34-2.521-.899-3.645-3.402-4.135l-15.882.003c-2.12 0-3.183.819-4.315 2.145-.653.766-.85 1.263.492 1.517 2.636.5 4.121 2.206 4.515 4.849.632 4.223.588 8.463.224 12.703-.107 1.238-.32 2.473-.811 3.629-.768 1.817-2.008 2.187-3.637 1.069-1.475-1.012-2.511-2.44-3.525-3.874-3.809-5.382-6.848-11.186-9.326-17.285-.716-1.762-1.951-2.83-3.818-2.859a389.727 389.727 0 00-13.762.004c-2.76.052-3.583 1.392-2.459 3.894 4.996 11.113 10.557 21.917 17.816 31.759 3.727 5.051 8.006 9.51 13.534 12.67 6.265 3.582 13.009 4.66 20.112 4.328 3.326-.156 4.325-1.021 4.479-4.336.104-2.268.361-4.523 1.48-6.561 1.098-2 2.761-2.381 4.678-1.137.959.623 1.767 1.416 2.53 2.252 1.872 2.048 3.677 4.158 5.62 6.137 2.437 2.48 5.324 3.945 8.954 3.646l14.052.003c2.264-.148 3.438-2.924 2.138-5.451-.913-1.77-2.111-3.346-3.383-4.871z"/></symbol><symbol id="yad" viewBox="0 0 40 40"><path fill="url(#gradient)" d="M9.3 30.2c-3-1.8-3.5-2.6-3.5-6.1V17c0-.5.1-.7.3-1.1.3-.6 1-.9 1.6-.9.3 0 .6.1.9.2l5.7 3.3c1.7 1 2.9 3.1 3.1 5.4V34c0 .3-.2.5-.5.5-.1 0-.2 0-.2-.1l-7.4-4.2zm24.8-15c0 .1.1.2.1.2v8.7c-.1 3.7-.6 4.4-4.1 6.4l-5.8 3.4c-.4.2-.7.3-1.1.3-.7 0-1.3-.4-1.6-.9-.2-.3-.3-.6-.3-.9v-6.7c0-2 1.3-4.2 3.2-5.5l8.9-5.1c.3-.2.6-.2.7.1m-16.3.9l-9-5.1c-.2-.1-.3-.4-.2-.7 0-.1.1-.1.2-.2l7.6-4.4C19.7 4 20.6 4 24.1 6l5.8 3.3c.4.2.6.4.8.8.3.6.3 1.3 0 1.9-.2.3-.4.5-.7.7l-5.8 3.4c-.9.5-1.9.8-3.1.8-1.1 0-2.2-.3-3.3-.8M20 0c-1.3 0-2.6.3-3.7 1L5.6 7.3C3.4 8.6 2 11 2 13.6v12.8c0 2.6 1.4 5 3.6 6.3L16.3 39c1.1.7 2.4 1 3.7 1 1.3 0 2.6-.3 3.7-1l10.7-6.3c2.2-1.3 3.6-3.7 3.6-6.3V13.6c0-2.6-1.4-5-3.6-6.3L23.7 1C22.6.3 21.3 0 20 0z"/></symbol></svg>