<svg xmlns="http://www.w3.org/2000/svg" xmlns:xlink="http://www.w3.org/1999/xlink" xmlns:dc="http://purl.org/dc/elements/1.1/" xmlns:cc="http://creativecommons.org/ns#" xmlns:rdf="http://www.w3.org/1999/02/22-rdf-syntax-ns#" xmlns:svg="http://www.w3.org/2000/svg"><defs>
        <linearGradient x1="0.00388991071%" y1="49.997619%" x2="100.032232%" y2="49.997619%" id="linearGradient-1">
            <stop stop-color="#000000" stop-opacity="0.1" offset="0%"/>
            <stop stop-color="#000000" stop-opacity="0.2" offset="100%"/>
        </linearGradient>
</defs><symbol id="git-logo-white" viewBox="0 0 291.16 121.61333"><metadata id="metadata8"><rdf:RDF><cc:Work rdf:about=""><dc:format>image/svg+xml</dc:format><dc:type rdf:resource="http://purl.org/dc/dcmitype/StillImage"/></cc:Work></rdf:RDF></metadata><g transform="matrix(1.3333333,0,0,-1.3333333,0,121.61333)" id="g10"><g transform="scale(0.1)" id="g12"><path id="path14" style="fill:#ffffff;fill-opacity:1;fill-rule:nonzero;stroke:none" d="m 1308.73,601.652 c -47.88,0 -83.54,-23.511 -83.54,-80.093 0,-42.633 23.5,-72.227 80.96,-72.227 48.7,0 81.78,28.695 81.78,73.988 0,51.328 -29.6,78.332 -79.2,78.332 z M 1213,202.133 c -11.33,-13.906 -22.62,-28.68 -22.62,-46.117 0,-34.786 44.36,-45.254 105.3,-45.254 50.48,0 119.24,3.535 119.24,50.468 0,27.895 -33.08,29.622 -74.88,32.243 z m 257.61,396.89 c 15.64,-20.023 32.2,-47.878 32.2,-87.91 0,-96.601 -75.72,-153.164 -185.35,-153.164 -27.88,0 -53.12,3.473 -68.77,7.817 l -28.73,-46.118 85.28,-5.21 c 150.58,-9.594 239.32,-13.954 239.32,-129.661 0,-100.109 -87.88,-156.652 -239.32,-156.652 -157.52,0 -217.57,40.0391 -217.57,108.781 0,39.18 17.41,60.02 47.87,88.782 -28.73,12.144 -38.29,33.89 -38.29,57.398 0,19.16 9.56,36.562 25.25,53.109 15.66,16.52 33.06,33.078 53.95,52.219 -42.64,20.883 -74.85,66.141 -74.85,130.555 0,100.074 66.15,168.804 199.28,168.804 37.43,0 60.07,-3.445 80.09,-8.699 h 169.72 v -73.957 l -80.08,-6.094"/><path id="path16" style="fill:#ffffff;fill-opacity:1;fill-rule:nonzero;stroke:none" d="m 1703.8,757.168 c -49.62,0 -78.33,28.746 -78.33,78.371 0,49.563 28.71,76.563 78.33,76.563 50.48,0 79.2,-27 79.2,-76.563 0,-49.625 -28.72,-78.371 -79.2,-78.371 z M 1591.51,234.156 v 68.719 l 44.4,6.074 c 12.19,1.766 13.92,4.356 13.92,17.442 v 255.867 c 0,9.555 -2.6,15.672 -11.33,18.262 l -46.99,16.55 9.57,70.469 h 180.17 V 326.391 c 0,-13.95 0.84,-15.676 13.93,-17.442 l 44.39,-6.074 v -68.719 h -248.06"/><path id="path18" style="fill:#ffffff;fill-opacity:1;fill-rule:nonzero;stroke:none" d="m 2183.73,267.895 c -37.44,-18.254 -92.26,-34.793 -141.89,-34.793 -103.56,0 -142.71,41.734 -142.71,140.121 v 228.004 c 0,5.211 0,8.707 -6.99,8.707 h -60.91 v 77.453 c 76.61,8.726 107.05,47.027 116.62,141.886 h 82.69 V 705.648 c 0,-6.07 0,-8.699 6.97,-8.699 h 122.7 V 609.934 H 2030.54 V 401.945 c 0,-51.355 12.2,-71.355 59.17,-71.355 24.4,0 49.61,6.074 70.5,13.914 l 23.52,-76.609"/><path id="path20" style="fill:#ffffff;fill-opacity:1;fill-rule:nonzero;stroke:none" d="m 894.215,496.285 -397.938,397.91 c -22.898,22.918 -60.066,22.918 -82.996,0 L 330.652,811.559 435.469,706.738 c 24.367,8.227 52.297,2.711 71.711,-16.707 19.515,-19.539 24.992,-47.707 16.558,-72.156 l 101.024,-101.02 c 24.441,8.422 52.64,2.981 72.156,-16.57 27.285,-27.277 27.285,-71.476 0,-98.762 -27.289,-27.293 -71.488,-27.293 -98.789,0 -20.516,20.532 -25.59,50.676 -15.199,75.954 l -94.215,94.218 -0.008,-247.929 c 6.652,-3.293 12.93,-7.688 18.473,-13.207 27.277,-27.274 27.277,-71.465 0,-98.782 -27.285,-27.273 -71.504,-27.273 -98.762,0 -27.281,27.317 -27.281,71.508 0,98.782 6.742,6.73 14.543,11.824 22.867,15.238 v 250.23 c -8.324,3.403 -16.113,8.461 -22.867,15.239 -20.664,20.648 -25.641,50.976 -15.043,76.351 L 290.051,770.961 17.1992,498.125 c -22.92576,-22.937 -22.92576,-60.105 0,-83.027 L 415.133,17.1875 c 22.91,-22.91797 60.066,-22.91797 83.008,0 L 894.215,413.254 c 22.918,22.93 22.918,60.109 0,83.031"/></g></g></symbol><symbol id="github" viewBox="0 0 24 24"><path d="m12 .5c-6.63 0-12 5.28-12 11.792 0 5.211 3.438 9.63 8.205 11.188.6.111.82-.254.82-.567 0-.28-.01-1.022-.015-2.005-3.338.711-4.042-1.582-4.042-1.582-.546-1.361-1.335-1.725-1.335-1.725-1.087-.731.084-.716.084-.716 1.205.082 1.838 1.215 1.838 1.215 1.07 1.803 2.809 1.282 3.495.981.108-.763.417-1.282.76-1.577-2.665-.295-5.466-1.309-5.466-5.827 0-1.287.465-2.339 1.235-3.164-.135-.298-.54-1.497.105-3.121 0 0 1.005-.316 3.3 1.209.96-.262 1.98-.392 3-.398 1.02.006 2.04.136 3 .398 2.28-1.525 3.285-1.209 3.285-1.209.645 1.624.24 2.823.12 3.121.765.825 1.23 1.877 1.23 3.164 0 4.53-2.805 5.527-5.475 5.817.42.354.81 1.077.81 2.182 0 1.578-.015 2.846-.015 3.229 0 .309.21.678.825.56 4.801-1.548 8.236-5.97 8.236-11.173 0-6.512-5.373-11.792-12-11.792z" fill="#111111"/></symbol><symbol id="gmail" viewBox="0 0 512 512">
<rect x="64" y="64" style="fill:#ECEFF1;" width="384" height="384"/>
<polygon style="fill:#CFD8DC;" points="256,296.384 448,448 448,148.672 "/>
<path style="fill:#F44336;" d="M464,64h-16L256,215.616L64,64H48C21.504,64,0,85.504,0,112v288c0,26.496,21.504,48,48,48h16V148.672
	l192,147.68L448,148.64V448h16c26.496,0,48-21.504,48-48V112C512,85.504,490.496,64,464,64z"/>
<g>
</g>
<g>
</g>
<g>
</g>
<g>
</g>
<g>
</g>
<g>
</g>
<g>
</g>
<g>
</g>
<g>
</g>
<g>
</g>
<g>
</g>
<g>
</g>
<g>
</g>
<g>
</g>
<g>
</g>
</symbol><symbol id="logo_gmail" viewBox="0 0 256 194" preserveAspectRatio="xMidYMid">
    
	<g>
		<path d="M238.833923,193.595007 L16.1542195,193.595007 C7.51970044,193.595007 0.248526454,186.551057 0.248526454,177.689314 L0.248526454,16.8145898 C0.248526454,8.18007073 7.29247625,0.908896748 16.1542195,0.908896748 L238.833923,0.908896748 C247.468442,0.908896748 254.739616,7.95284654 254.739616,16.8145898 L254.739616,177.689314 C254.739616,186.551057 247.695666,193.595007 238.833923,193.595007 L238.833923,193.595007 Z" fill="#E3E3E3"/>
		<path d="M32.0599126,193.595007 L127.266847,117.020456 L127.94852,112.930421 L29.7876708,42.2636988 L29.5604466,190.186644 L32.0599126,193.595007 Z" opacity="0.1" fill="#231F20"/>
		<path d="M16.1542195,193.595007 C7.29247625,193.595007 0.248526454,186.551057 0.248526454,177.689314 L0.248526454,16.5873656 C0.248526454,7.72562236 7.29247625,6.13505305 16.1542195,6.13505305 C25.0159628,6.13505305 32.0599126,7.95284654 32.0599126,16.5873656 L32.0599126,193.595007 L16.1542195,193.595007 L16.1542195,193.595007 Z" fill="#D54B3D"/>
		<path d="M16.1542195,8.40729492 C27.5154289,8.40729492 29.7876708,11.8156577 29.7876708,16.5873656 L29.7876708,191.322765 L16.1542195,191.322765 C8.65582137,191.322765 2.52076832,185.187712 2.52076832,177.689314 L2.52076832,16.5873656 C2.52076832,11.5884335 4.79301019,8.40729492 16.1542195,8.40729492 L16.1542195,8.40729492 Z M16.1542195,6.13505305 C7.29247625,6.13505305 0.248526454,7.95284654 0.248526454,16.5873656 L0.248526454,177.689314 C0.248526454,186.551057 7.29247625,193.595007 16.1542195,193.595007 L32.0599126,193.595007 L32.0599126,16.5873656 C32.0599126,7.72562236 25.0159628,6.13505305 16.1542195,6.13505305 L16.1542195,6.13505305 L16.1542195,6.13505305 Z" fill="#D72B27"/>
		<path d="M238.833923,193.595007 L222.92823,193.595007 L222.92823,16.1329173 C222.92823,7.27117398 229.972179,6.13505305 238.833923,6.13505305 C247.695666,6.13505305 254.739616,7.27117398 254.739616,16.1329173 L254.739616,177.916538 C254.739616,186.551057 247.695666,193.595007 238.833923,193.595007 L238.833923,193.595007 Z" fill="#D54B3D"/>
		<path d="M238.833923,8.40729492 C249.059011,8.40729492 252.467374,10.4523126 252.467374,16.1329173 L252.467374,177.916538 C252.467374,185.414937 246.332321,191.54999 238.833923,191.54999 L225.200472,191.54999 L225.200472,16.1329173 C225.200472,10.2250884 228.608834,8.40729492 238.833923,8.40729492 L238.833923,8.40729492 Z M238.833923,6.13505305 C229.972179,6.13505305 222.92823,7.27117398 222.92823,16.1329173 L222.92823,193.822231 L238.833923,193.822231 C247.695666,193.822231 254.739616,186.778282 254.739616,177.916538 L254.739616,16.1329173 C254.739616,7.27117398 247.695666,6.13505305 238.833923,6.13505305 L238.833923,6.13505305 L238.833923,6.13505305 Z" fill="#D72B27"/>
		<path d="M170.666667,193.595007 L1.57979906,23.1947544 L10.4736149,26.8124541 L128.175744,111.567076 L254.73962,18.7604631 L254.739616,177.916538 C254.739616,186.551057 247.695666,193.595007 238.833923,193.595007 L170.666667,193.595007 Z" fill="url(#linearGradient-1)"/>
		<path d="M127.266847,117.020456 L7.06525206,29.7663685 C0.0213022675,24.5402122 -2.02371542,14.542348 3.20244088,7.49839817 C8.42859718,0.454448374 18.6536856,-1.13612093 25.9248596,4.09003537 L127.494071,77.9378961 L229.744955,3.18113862 C236.788905,-2.04501768 246.786769,-0.454448374 252.012926,6.81672561 C257.239082,13.8606754 255.648513,23.8585396 248.377339,29.0846959 L127.266847,117.020456 L127.266847,117.020456 Z" fill="#D54B3D"/>
		<path d="M238.833923,2.27224187 L238.833923,2.27224187 C243.151182,2.27224187 247.241218,4.31725955 249.967908,7.95284654 C254.285167,14.0878996 252.921822,22.4951945 247.013993,27.0396782 L127.266847,114.293766 L8.42859718,27.948575 C2.29354414,23.4040913 0.702974828,14.7695722 5.02023438,8.86174329 C7.51970044,5.45338049 11.83696,3.18113862 16.3814437,3.18113862 C19.3353582,3.18113862 22.2892726,4.09003537 24.5615145,5.90782886 L125.903502,79.5284654 L127.266847,80.4373622 L128.630192,79.5284654 L230.653852,4.77170793 C233.153318,3.18113862 235.880008,2.27224187 238.833923,2.27224187 L238.833923,2.27224187 Z M238.833923,0 C235.652784,0 232.244421,0.908896748 229.517731,2.95391443 L127.266847,77.7106719 L25.6976354,3.86281118 C22.9709451,1.8177935 19.5625823,0.908896748 16.1542195,0.908896748 C11.1552874,0.908896748 6.15635532,3.18113862 2.9752167,7.49839817 C-2.02371542,14.542348 0.0213022675,24.5402122 7.06525206,29.7663685 L127.266847,117.24768 L248.150114,29.0846959 C255.194064,23.8585396 256.784634,14.0878996 251.785701,6.81672561 C248.604563,2.27224187 243.832855,0 238.833923,0 L238.833923,0 L238.833923,0 Z" fill="#D72B27"/>
	</g>
</symbol></svg>